<?xml version="1.0" encoding="utf-8"?>
<!-- Generator: Adobe Illustrator 19.2.1, SVG Export Plug-In . SVG Version: 6.00 Build 0)  -->
<svg version="1.1" id="Ebene_1" xmlns="http://www.w3.org/2000/svg" xmlns:xlink="http://www.w3.org/1999/xlink" x="0px" y="0px"
	 viewBox="0 0 1020.5 340.2" style="enable-background:new 0 0 1020.5 340.2;" xml:space="preserve">
<style type="text/css">
	.st0{clip-path:url(#SVGID_2_);}
	.st1{clip-path:url(#SVGID_4_);}
</style>
<metadata><?xpacket begin="﻿" id="W5M0MpCehiHzreSzNTczkc9d"?>
<x:xmpmeta xmlns:x="adobe:ns:meta/" x:xmptk="Adobe XMP Core 5.6-c111 79.158366, 2015/09/25-01:12:00        ">
   <rdf:RDF xmlns:rdf="http://www.w3.org/1999/02/22-rdf-syntax-ns#">
      <rdf:Description rdf:about=""
            xmlns:dc="http://purl.org/dc/elements/1.1/"
            xmlns:xmp="http://ns.adobe.com/xap/1.0/"
            xmlns:xmpGImg="http://ns.adobe.com/xap/1.0/g/img/"
            xmlns:xmpMM="http://ns.adobe.com/xap/1.0/mm/"
            xmlns:stRef="http://ns.adobe.com/xap/1.0/sType/ResourceRef#"
            xmlns:stEvt="http://ns.adobe.com/xap/1.0/sType/ResourceEvent#"
            xmlns:illustrator="http://ns.adobe.com/illustrator/1.0/"
            xmlns:xmpTPg="http://ns.adobe.com/xap/1.0/t/pg/"
            xmlns:stDim="http://ns.adobe.com/xap/1.0/sType/Dimensions#"
            xmlns:xmpG="http://ns.adobe.com/xap/1.0/g/"
            xmlns:pdf="http://ns.adobe.com/pdf/1.3/">
         <dc:format>image/svg+xml</dc:format>
         <dc:title>
            <rdf:Alt>
               <rdf:li xml:lang="x-default">Druck</rdf:li>
            </rdf:Alt>
         </dc:title>
         <xmp:MetadataDate>2016-04-29T09:28:26+02:00</xmp:MetadataDate>
         <xmp:ModifyDate>2016-04-29T09:28:26+02:00</xmp:ModifyDate>
         <xmp:CreateDate>2016-04-29T09:28:26+02:00</xmp:CreateDate>
         <xmp:CreatorTool>Adobe Illustrator CC 2015 (Macintosh)</xmp:CreatorTool>
         <xmp:Thumbnails>
            <rdf:Alt>
               <rdf:li rdf:parseType="Resource">
                  <xmpGImg:width>256</xmpGImg:width>
                  <xmpGImg:height>72</xmpGImg:height>
                  <xmpGImg:format>JPEG</xmpGImg:format>
                  <xmpGImg:image>/9j/4AAQSkZJRgABAgEASABIAAD/7QAsUGhvdG9zaG9wIDMuMAA4QklNA+0AAAAAABAASAAAAAEA&#xA;AQBIAAAAAQAB/+4ADkFkb2JlAGTAAAAAAf/bAIQABgQEBAUEBgUFBgkGBQYJCwgGBggLDAoKCwoK&#xA;DBAMDAwMDAwQDA4PEA8ODBMTFBQTExwbGxscHx8fHx8fHx8fHwEHBwcNDA0YEBAYGhURFRofHx8f&#xA;Hx8fHx8fHx8fHx8fHx8fHx8fHx8fHx8fHx8fHx8fHx8fHx8fHx8fHx8fHx8f/8AAEQgASAEAAwER&#xA;AAIRAQMRAf/EAaIAAAAHAQEBAQEAAAAAAAAAAAQFAwIGAQAHCAkKCwEAAgIDAQEBAQEAAAAAAAAA&#xA;AQACAwQFBgcICQoLEAACAQMDAgQCBgcDBAIGAnMBAgMRBAAFIRIxQVEGE2EicYEUMpGhBxWxQiPB&#xA;UtHhMxZi8CRygvElQzRTkqKyY3PCNUQnk6OzNhdUZHTD0uIIJoMJChgZhJRFRqS0VtNVKBry4/PE&#xA;1OT0ZXWFlaW1xdXl9WZ2hpamtsbW5vY3R1dnd4eXp7fH1+f3OEhYaHiImKi4yNjo+Ck5SVlpeYmZ&#xA;qbnJ2en5KjpKWmp6ipqqusra6voRAAICAQIDBQUEBQYECAMDbQEAAhEDBCESMUEFURNhIgZxgZEy&#xA;obHwFMHR4SNCFVJicvEzJDRDghaSUyWiY7LCB3PSNeJEgxdUkwgJChgZJjZFGidkdFU38qOzwygp&#xA;0+PzhJSktMTU5PRldYWVpbXF1eX1RlZmdoaWprbG1ub2R1dnd4eXp7fH1+f3OEhYaHiImKi4yNjo&#xA;+DlJWWl5iZmpucnZ6fkqOkpaanqKmqq6ytrq+v/aAAwDAQACEQMRAD8A9U4q7FXYq7FXYq7FXYq7&#xA;FXYqwnz555u9IhNvp4+pTmQRnVNRtZjp61B2MivG1elGVXHb5FUfpS3Gu6P6sPmd5JZY/Tnm0v6o&#xA;Y45CKEx+pBK6nuOZOBWtF8iWdpE0OruPMG9Y7zUg09x1rR/VaSP5GNUA/lxVMJPJvlCRy8mh6e7n&#xA;qzWsJJpt1K4ql2p/V/KaLf2tzw01mP1jSZpCwKqrSSPZhyWDois5iX4WVTRQ2+Ksltrm3ubeO5tp&#xA;Fmt5lEkM0ZDI6MKqysNiCMVVMVdirsVdirsVdirsVdirsVdirsVdirsVdirsVdirsVdirsVdirsV&#xA;dirsVdirsVYh+Y/nJvL1lZWtszR6jrFwLS1uFhkufQqKvMYYkld+I+yvGhPXbFUfaeSvLpjSW9gO&#xA;rXTESPe6kBNO5qWUMGVVVVr8KBQq9gDirIMVdirsVeJ/85Q+dtE0zykugevJ+n75kmtIoWA9KNGo&#xA;0svX4SKqnfluPs1xUMT/AC4/OHyvdxW1nZSx+SvMEYRBAxZtCvWG3GWIn/R2fvItGruWf7OK09/8&#xA;veZbfVle2mj+paxaqpv9Mdgzx8/sujDaSJ6fBIux9jUBVOcVdirsVdirsVdirsVdirsVdirsVdir&#xA;sVdirsVdirsVdirsVdirsVdirsVSfzfr7aB5bv8AVkha4ktYWeKIK7KXp8JfgGKoDuzdh74q7y3o&#xA;1vaWcN5L/pOq3USPe6jIrerK7KGanqAOkdT8MewXpQYqnGKqN616tpM1ikcl2FJgjmZkjZx0VnVX&#xA;Kg+IU08DirHE856naox1vy1qNiEFXntVj1GEjxUWrPcH6YRiqQ6X/wA5BflffNcpNqh0+S3m9FVu&#xA;43T1VMhjWWKgbkhI3rQr+0FxV83eZ7u38x/mb5ouNZkSaWS5mXTyS8kbWqRSra8WiWRvS2gYvGte&#xA;O4oCzBSwLX9EGkXENv64uHaMNKwR4wHqaqqyhJCoFPiKAE141AqVIem/kx+YBa6tvLur6kLC5t9/&#xA;KuuzfF9TuDt9UmNRytJ/ssjGgPSh3Cgh9Z+Xdbk1O1kS7g+p6rZt6OpWPLl6ctAwKNtzjdSGRu48&#xA;CCAoTXFXYq7FXYq7FXYq7FXYq7FXYq7FXYq7FXYq7FXkvnH/AJyY/L/y3rE+kLHd6pd2rmK5e0SP&#xA;0UddmTnI6cmU7HiCPfFaZX+Xn5qeUfPtpNNoc0i3FtT6zY3KiOeMN0YqC6sp8VY4qwr/AKGt/K3+&#xA;TUf+kdP+qmK0zXyv+avkzzP5e1DXNHumnt9LjeW/tmQpcRBEL7xtT7SqeJBofHY4qwr/AKGt/K3+&#xA;TUf+kdP+qmK0z/yL+YnlXzxp0t95fuTMtu4juYZEMcsTMKqHU+I6EVH3YqyXFXkv51ebru0l0/Qp&#xA;bFhpd9d20JklaFIr6dpFYWx9QsRAuzTMUo32KrXcqyfSvNuk2mtwaTq/me3utevAIo9DtkiRIXpU&#xA;r6cRuJUYUofUmK+GBWZ4q7FUNqemWGqafcafqECXNldIY54JBVWU9v7e2KvIfOn5GeR7HSta1p7y&#xA;dLtrFbbS7m+mLpZ3Ik5RSiY/GvOYqGd2NKtvvhV4cfy+Nu1rfa9LbXunatBcyaXNb+os0zxKJS1s&#xA;luGRwWmX4XoeRKfCQaK2wqTyfrbaba6jZ2dzfWtxC08lxbwSPDGEfgwMgBFUYgNWlD47EhlaR4q9&#xA;f/K/879Z0u+tLPWr4skCiGw1KerCOOv+812QC72zdm3eI/EtRyUqCH1Do/5k+VdQ/dT3Q06+jcQX&#xA;FrehoeE5Ct6SyuFilJDqVMbHkCCOuKGU4qwHz/8AnZ5M8i6zDpGtrdm7nt1u0+rxLInpu7xipLrv&#xA;yiOKpNov/OTH5b6xrNhpFot/9b1G4itLfnAqp6k7iNOR9Q0HJt8Vp2tf85Mflvo+s3+kXa3/ANb0&#xA;64ltLjhArJ6kDmN+J9QVHJdsVpkvkH83PJPnp54dCun+uWy+pLZXCGKYR1pzAqQy1NDxJp36jFUk&#xA;8+f85CeQPJ+pSaVO1xqWpwnjcW1iisIm/lkkkaNQfZakd8VpH/l3+dvkjz3ctZaXJNa6mqGT6heI&#xA;qSMq/aKFGdHp7NWnbFWfYqw/RvzL0q+sm1C7h/RuncVaO4muLaRmZ2oiejDJJKGbc0K9sNKmS+fP&#xA;JjXAgGs2nqGH6ypMqhDD6H1n1A5+Ar6AMnX7IJ6A4FQdj+Z3k27luFGoRxJDdmyhkkNBM6w28zsn&#xA;cIhu0Ri1KN9GKrbL8z/KVylzM90LW0txHWecqhZ5JrmHgsYJkqPqTtXjQr06NRVNLLzj5XvtT/Rd&#xA;nqcE9/TkIEapI4CX4T0P7tw+x+zv0xVOMVfLOjWf5o/k95l1y4j8p/4h0rUZeX16BHkJiVmZSJYl&#xA;kaIEP8ayJ1/FSyv8jvMP5W6z581O+0fS7vQPNl1FM11YSy87Z0aRXmWIAKAVdQeJUU7d6KHln5Jf&#xA;mt5O8kaXrVr5g0ufUpNQeJrdIooJY6Rq4ZZDM6UqWHRTikhlX5JaLqr6b+Y3mb9HyaboeoabdrYR&#xA;MhRG5iWULFUfEsSfDUbb4oKW/k95z86aT5IksNI8gt5msjczSG/4s68yqVjKiN68aA0riksp/wCc&#xA;ThZtqvmy4kmFtqs7x+toqRvGkMayOeQ5bfC78AvVab9cVLI/z4/N/wA++SXjt9I0RILG5okPmCci&#xA;ZGkK8iiRKaI4oaep17DbFAfL/mPzVrXmXUGv9Vv57/UNuM9yxLVqDwgjjHCIV/ZGLJT0aHV7DVbK&#xA;70i9ih1OINOJlkRPqxUleTyP+7U03HxV+mmKHq/5P/nvaaJqF/e+edW1vU7mXhDZKJ3uLRIyCZHa&#xA;3d0AYFFowqd+g3JVp9QaJ5v8sa5ptvqel6nb3NldFUgkDhSXY0EZVqMr124kVxQm+KqV3aWt5ay2&#xA;l3ClxazqY5oJVDo6MKFWVqggjxxV5L5ssPy08q+YILyHUX8t6nb+obdXsZ7jTQ9wtZ5APSMSytH9&#xA;plkFNiwOFWaaB5p8h2unenZa9ZT2yxSXsl2Hto0MakerIzQJDCCpdee1RUV64Feaf85KaDoHmLyJ&#xA;Jr2jPa3OoaPLFc3E1qIpJJLWasZrIlWKgsH602P0Kh8oKkRiZjJxkU7IQaMPZhXf5j6cWT6g8gaZ&#xA;deaPyIuJLcMfNOnRSWHOPeeSC35GKCVCRypDMRGDQ1CEEFVILEvR/wAq/wBM6Z5e0XT9WuXvDqFo&#xA;1xFM68fTljI5xJsCYpEf1IttgG6DioVeSfn3qM+m/n35XvrfSn1yaDTYGTSYwWa4P1i6HAAJKf8A&#xA;hDgSzryB551XXvNFtp+oflZP5ctyHl/S88LhIniUum72kABZhQfHiink/lr8yfK/kb82/wAwbnzB&#xA;ZXF9De6jexQx28UMpDLeyMeQmeMAU8K4ppHflXPf6r+Znmj8wdD0V9N0CDT7ya3Thxi9X0hwjXiO&#xA;DO7IXKrsPuxUsg/5xS0fTZNF1/zfeRLdaz9beD6w45TKixLM5UnoZGk3I60xUoXT/Pf5WeZfza0H&#xA;V49A1jSfMk88UFvKPQggd6lecyAlnqr8WI6jbFD6TxVhln5O8ty6TYWGh6hHDe6PLHPFqFqLeSb1&#xA;ESSKs68WV+SSuNx8sKqMv5Q+XpNKGlm5uhbB/U5Vj9Qt+jJNM5E8ONeExk+zTn247YFSe/8Ayo0j&#xA;W7q/gm8zzXOpzTSXOoootWKySx20at6CrSMqLNKEitCd6muFU5h/K2C3vf0ha6vdQ6hG4a1uQkDe&#xA;kvqXzleDIVav6UlFSOy+9QqK0XyF5d8tJpqW9y0MFldK9qszIOcj2SaekZai8iY0FO5bFWWqytUK&#xA;QeJo1D0PWhxV896X5e/Pz8ttZ1O38v2cfm3Qr5w9vLdT8njC147PNG6NxajdVNNsVTL8p/yz8+y/&#xA;mPf/AJj+d4YdOvrhZBb6dCUJ5yKIuRCM6qiRLQVYsTufdVGf841/l75w8mafrsPmSw+oSXk1u9sv&#xA;rQTcljVwx/cvJSnIdcUl6p5psrm+8s6vZWqepc3VlcQwR1C8pJImVRViAKk9zih88eQtD/5yc8la&#xA;J+hNG8t2X1NpnnL3M9pI4eQKDut0u3w+GKWd/kl+Vnmry9ruu+bvN0sP6d1wsDbW5DBBJL6srMV+&#xA;CrOBxVdgB17BQn/53fl3bedfJF1CsddX05HutJcEg+qq1aP3Eqrx370PbFXxNDqNzPbwaZc3Zt9L&#xA;R+TqiAgbklyicfUfc8eR9qgYsl+nWNle3lxH60dpZgErcXTktEgYNy4RKXlbipWir3qaDfFUwvI9&#xA;Juljgs5IDBDbytC5jNtLzjHJpZwq3DvzCngnqmn2vhXbFCt5V1LU/LWr2fmzQYLq7g0p42u55IXi&#xA;gWVwf3Ejwu44N7sOX8uKvpP8tv8AnJ7QPMt/BpOvWY0W/mDcbwzR/UiVUtRnkMbRlqUUfFU98Vp7&#xA;ZHIkiLJGwdHAZHU1BB3BBGKEPqenWep6fcafexiW0uo2injYAhkcUIoQRiryzW/yD8t2tlbHRrL6&#xA;/ZWEkk7+XLyYiK6LxCMhbgfvUkoi8C7MvwgUA3CrG7T8kI9XurWXypqx03yfND9T1SJLq5kvJFUk&#xA;TwyxyAxRuvrTxenxThUkgliuFXz/AKpous+V/wAxbrSdCmmbUtM1J7XTbiComaRZOMVKAfEwpUfw&#xA;wMn1rd6Z+YthZW2pzaVZaz5khhjE2qadP9QuWIUepHLbuphuUU1oplUN1URmhBYsM/5x/wDM3n7z&#xA;Z5s1668z1eHTZFZuUfpejfen9VMSKKKB6SHmPEA98ClPvPHkHzbqf58+VfNNjYetoOm2sMV7eerC&#xA;vB0muGYemzrI20q/ZU9cVewYq8f/ACn8g+bdB/NHz1rmrWH1bS9ZuriXTbj1YZPVSS7klU8I3Z1q&#xA;jA/EBir16WKOWJ4pFDxyKVdT0KkUIOKvnOx8gfnL+Vfma/fyHZw695Z1F+YtJnX4QCeCyK0kTiRA&#xA;ePNCQ3fwClUh8gfnZ5g/MXyx53802kEa2t5GJdNt5YlWytImDh+LSNy5szVCszbb9gFX0Vih5Vp3&#xA;5X6zb6Ppdw15eQ6wFtLK6itZYLUwWRuoprpBNbiN5DxipyLs1K8dycKp95P0jzhbarfHU5LqOB4p&#xA;Y3muLoXUctwZiYZrWIvIYY0hPEqQtT2NOTKsJi8qec9J02wjFodFTR9Luba/1uOS04yXCw+olzHJ&#xA;G31x1nuY0aZZKeFKVOKq2lW35g33mS3uWbU1vbi003VZYvrxSwsvreo3cs1vNbSOBIPqcawURGIK&#xA;1NCQwCoX/Df5w3Oly2t7DevC8tvNLAbpHlaRYpQ5jkOohlVLj0pNpEUgAiMbxYVRN35L/M62luE0&#xA;2W9Rru4luLi5ivK87qW3tVjuPju4eMUckc4ZPTZd1/dOtOKrLLT83tFlimuJrK4jtI7iC2SWIxXD&#xA;87i7W0CzRRMzwOruGZHHLjWlW+HAqnb/AJ0+WDfi2vIbi1i9ATveem8kCD6u90/J1X7KRx9RXf6T&#xA;hpWRal578p6ZetZX2oLDcpI8Tx8JG4tHHDK/IqpVQsd3ExYmnxDfAqvpvm3y7qeqT6XYXqz31sHa&#xA;aJVegEUnpOVcqEbjJ8J4k71HY4qm+KuxV2KvK/MX/ONX5W6vFcvb2MumX9wXk+uW88zUkc8uXpSv&#xA;JHx5fsgD6MVt8s+YvK/mjyFq8+ja9BcWdrdkh5IOC/W7eMkfupqOOL1+Ib025KSAMUqWkaLYw+ab&#xA;ez1l57bSLy2N9dRWMoM62klsbuJOTIwLcOJoUNcVcLZdT1+18v2U6SabK6xW0au62kN3doI1ZpPi&#xA;LenM6q0p+0F/loMVX2PkO+1bU9Qit0Onw2S3d1cfWAVhgt4W4QfvnI5+rP8AuR7iu+9Fbe3flT+e&#xA;XnSy8v20fmjQL3UNEtS1rHr1tCzSlkoQkisVD+mnIsy70XcE1OKHv+la9pOqaRbavZXKyadeRevb&#xA;ztVA0dOXKj8SNhU16Yq3rOlWutaRcadNJIlvdpxaS3kaN+J32dCDQ9x0I2O2KsX8gSaJ5e9PyJ6V&#xA;vZavYQI4WAMiXkaoqm5T1PjY0oHBLUOwZuJoqwf8qfyd1e3896z5383xq1/9bnbSbf7QVp3aR7j6&#xA;PUKp9J/lxV7a680ZaleQIqpoRXwOKpX5Y8r6L5Z0lNL0iD0bZWaR2Yl5JZXNXlldvid27scVSvWP&#xA;PK2HmpPLsdtFLcvBbXHOa7htiwu5poUSJJPilYG3NQviPHFVR/zI8lLB6/6TVozKkKlI5nLNLHJL&#xA;GUVULMrpBIyuo4nid8VU7r8y/KcGo2tml4swnR5pZ4+Riiijtjdcy4Xi1Y+PwqeXxDbfFVSX8xvK&#xA;MaW7fXWrdyG3twYLhQZw5j9FyY6RvyUji9D36Yqti/Mnyf8AVlludQjt5BbR3U8bB2CK8aScearw&#xA;ZlWVSVBrQ1pTFVZfzA8nsts36SQfWpDFGGSRSrhxFSUMoMXxsF/ecdzirIcVYf5W/Mey11oS8UNr&#xA;HclUtgt1FcSmVwzLHJFFVoiUjc/H4Uwqi4PzJ8jzlfT1aLg8P1lZXWRI/SFubrkZHVUH7hTJSteI&#xA;J7HAqGsvzT8n3Et0r3Zt0t7s2cbyRyj1OMFvK8hXhyiRGvEQtIAK99xiqpdfmZ5TguWgN0QbZ3XU&#xA;DLHNCbeNLW4u/UIkRS4KWb0418cVROqfmD5O0q5e2v8AUVhmiZ1lX05W4+n6fMsVRgFX146sdviG&#xA;KptpWradq1kl7p8wntnZ0DgFSHjco6MrBWVkdSrKwqDirBtP8keUtSupTaeZZdTvbdLdIHSezmmt&#xA;47W7hvIuZjj5S0mtkHKfkeO3ckqo6b8pfL0tkLI3V4IDF9XlHOKrwm0lsnQn09uUU7Gq0PKlKdMb&#xA;VBaN5H8n6idReHzHNrl5fR3SX9ytxaSPS+SzjkPGCJVXiumxBNtqtWu1FUV5T8l6nonma71XUb9D&#xA;YenJY6RZCQOscVxc/WNqwwMhLEKELSH/AC+gCrOcVWRzwSmQRSK5ibhKFIJV6A8Wp0NGBpiq/FXY&#xA;qwz82fy3tPP/AJUfSHkW2vopEnsL1l5elIpo1QNyroSCK+B7Yq+Y9S8r3/kzzsvl/UTJpF5xRtA1&#xA;9DFHF9YhiZElMzxySyQzsAjRGVVj5kEMFXClJtOk8yQfWrzW79xoNzbSyanbRkhYZLkTG3iFqgVI&#xA;ZWlj5w0QItVbZdsVa8s6xdXPlbzHqU0ks+q6OYb31ZZpmhuLa8ukt7u1uIeYjZJZJldqAEnlU4FU&#xA;fJnm68utf0bR75Z5NNlurCNbWylMDi6t2WGC6jJEirMI/wB2xUDkvvvitMhsvNJ1ZPMt5YWsMdnb&#xA;X7S2enxxCd2i1NzAnoRyDh6kU/CQbD7TqKKxUlFPcPJPnuXTr/y5o1zcx/U9SEthfWbujNpep28M&#xA;QSwR0ovo/u2VASzBvhZq9FUL5m4W/wCaelaus8unT6beos9rqSM1sw1BGg5Wd0OQVJ1Zg0ddpFDc&#xA;QBI2KvaMCuxV2Ksfu4vKdr5mlvNQvbaPVtQtbW1S0uZYVJjt5bhomijaj8ne5cE13oKdDVVLdM/K&#xA;3RrGazma+vLqTTlihsTM0P7q2t7W6tIbccIk5Ikd/KeTVctx5MQKYqkd1+WPkvRrWy0u48zXWm2h&#xA;j+r6bZzXFpEWna1WzeRC8QeR3jRSVB48ifhoaYqjdD/KfRbG5E1lrl7IlrLclLVBYCCKa6p9ZpGl&#xA;tRHbddqFVNBSpqqrn8qfLsUcNrJqF2LFCv1Szd4AouPRWFpFPpc2d44txWm7UG+xtVfUPyq8vXus&#xA;fpWSWX13nM9wjpbSq4Mom4Aywu8YDrsUYNQkV6UbVmeBWGWnl7ynqGjWejaFrQSfR3jlhvrGW1mu&#xA;kaMNHWSqSRnksjKeSd/HFVKL8n/K8eiw6P6941pAQUJkj5/DpsmlirCMf7pmLbft0PTbFUh1H8tf&#xA;JOszalDd+bZrvUEmku9W5Tae7RSvHbxiRofRKQFBaRhWCq1CwruKKp8/5S6NPaXFre6nqF5Hdz3V&#xA;1ctM1qJJJbyznsZGeSO3RzSC6ZUFaLxUDYUxVXg/LDSx9alvNRvr68vRILq7mNursZpIJGosUMaL&#xA;Q2iAADpX54qyDQtCtNFtrm3tXkdLq8ur+QylSRLeTvcSAcQvwh5CF707nFWAW35Xamnl2waW+vZN&#xA;bWOysZUWeK2FtYHULae9ihltEgkP7mA0ZpGfsDviqd+TdB802GvXc+pPL9VZJ0leW7kuEuZWuTJB&#xA;LDCzMtuscB4FQB2G4UHFWBaJ+XX5i2Oi2ixwyR3VppUOl3Ec91EZGVbqCR1smtWt+EfpxyV9SYFv&#xA;hHSuFUxtPy/853VlFca4LmfUbGTT/qsZv5GQpbXsskzBVlVHf0TH8UnxGlK1xVJNG0n8wNatbv6j&#xA;JqYs41sFvI5b+8R7m5WC8F1LBJO9u0IM0kLNGCtKCoqvDFU+uPJf5nme3P1ydwsqM0kV6YmEwitV&#xA;a4lKlFkQ+lKOJjbv8Hx1Ch6B5I0W70jQVgvnmkv5ppp7pp53uDzdzxCs7OFURhQFWgHzrgSn2Kux&#xA;Vin5meQNO88eU7vRrlEF0VMmm3TjeC5UfA9QCeJOz06rXFXzz5m/I/8AOBZoNEsoIL2HUbGyTV7y&#xA;CRRbB9O5wwAyTCKSqwqhNF3PjilvTP8AnG781bLQ9TsIZLGOXVJEt7pWkVo2tIB64PIqzDnOqUoo&#xA;YFa7DFbTTR/yR83+UvIkmoW/l+LU/PIvVu7S4juE5WMVrxZCinadpCGqinuP2gMVTf8ALX8m9Yt/&#xA;LXlbUF0mHS9cW+hn8wSXrzRym0stQW7i9OAB19dxGFqQvw7Hc1xQlOg/lj+bFvpWs6pZaLb6fK09&#xA;y2i6FI0TzE3kaWheSSWQpxt7fkV5sWdiSa1rhVkmp+fPP1h5i0GHXtOisdCEkelX+rXcDzCS4AjW&#xA;VJ2SRUEczfEknErX/VY4q93wK7FXYqwvXPIk2u+bNQub27uLfRLjT9Ot3toDb8bmS1ubyZ1lMkUs&#xA;yBBMlDGyV5Hc9lUhi8l+dbcWHpTXckzMZZJm1KYLbXLXfJ5ZI+ZWaM2oWNIwCBQinxM2FCI89+Uf&#xA;NN3qmu3Ok2qXZ1nTreztrgva1t3tzOWilivIriNreUzKzcF51B9iAlIE0Hz+3nH6tILsXDww3aXM&#xA;V60Ntbsbsc5ZIo3WOb92rr6dDsaUoa4UKsPkH8xpGSa9mkmu7e8guI5XvXZDcBLiNruKIyNwRPWj&#xA;YpUclXjw2+JSzj8v9I1/Tre8/SvrRRytEYLW5u3vpFdIgs8vquz0WaT4goO3WgJIwKyzFXl1n+Vu&#xA;ppoulPcX99Jqsa2tncxpPDbi3sfrUU1zDDLapBIQVipVnZ6dDvhVOfJ/l7zVZarfPqMsyQyQyxST&#xA;PdyXSzztOzQzwxOzegscJ4caDw6KCVWIReRPzDg0/TNNt7VIV0zTLjTbiaOW0KzyPF8NxA5iW7Qz&#xA;SqrS8pQOVPhPXFUzm8p+fLKGY6es1zPqbTC7eW/c+gTqPrJIiyOVC/VAEVY6UPUdcUMi8jeXtf0m&#xA;9mk1CSd4rm1QzCa6e4H1oXE5JVXd+A9Box8NBtTtilmWBX//2Q==</xmpGImg:image>
               </rdf:li>
            </rdf:Alt>
         </xmp:Thumbnails>
         <xmpMM:InstanceID>xmp.iid:673e89bd-525b-4dea-839f-228714659fa1</xmpMM:InstanceID>
         <xmpMM:DocumentID>xmp.did:673e89bd-525b-4dea-839f-228714659fa1</xmpMM:DocumentID>
         <xmpMM:OriginalDocumentID>uuid:5D20892493BFDB11914A8590D31508C8</xmpMM:OriginalDocumentID>
         <xmpMM:RenditionClass>proof:pdf</xmpMM:RenditionClass>
         <xmpMM:DerivedFrom rdf:parseType="Resource">
            <stRef:instanceID>xmp.iid:e43aa3f8-7efe-4452-a4cd-bd8f59791b5a</stRef:instanceID>
            <stRef:documentID>xmp.did:e43aa3f8-7efe-4452-a4cd-bd8f59791b5a</stRef:documentID>
            <stRef:originalDocumentID>uuid:5D20892493BFDB11914A8590D31508C8</stRef:originalDocumentID>
            <stRef:renditionClass>proof:pdf</stRef:renditionClass>
         </xmpMM:DerivedFrom>
         <xmpMM:History>
            <rdf:Seq>
               <rdf:li rdf:parseType="Resource">
                  <stEvt:action>saved</stEvt:action>
                  <stEvt:instanceID>xmp.iid:F97F1174072068118C14CBD9377107CA</stEvt:instanceID>
                  <stEvt:when>2014-01-28T17:22:39+01:00</stEvt:when>
                  <stEvt:softwareAgent>Adobe Illustrator CS5.1</stEvt:softwareAgent>
                  <stEvt:changed>/</stEvt:changed>
               </rdf:li>
               <rdf:li rdf:parseType="Resource">
                  <stEvt:action>saved</stEvt:action>
                  <stEvt:instanceID>xmp.iid:FA7F1174072068118C14CBD9377107CA</stEvt:instanceID>
                  <stEvt:when>2014-01-28T17:25:31+01:00</stEvt:when>
                  <stEvt:softwareAgent>Adobe Illustrator CS5.1</stEvt:softwareAgent>
                  <stEvt:changed>/</stEvt:changed>
               </rdf:li>
               <rdf:li rdf:parseType="Resource">
                  <stEvt:action>saved</stEvt:action>
                  <stEvt:instanceID>xmp.iid:FB7F1174072068118C14CBD9377107CA</stEvt:instanceID>
                  <stEvt:when>2014-01-28T17:27:11+01:00</stEvt:when>
                  <stEvt:softwareAgent>Adobe Illustrator CS5.1</stEvt:softwareAgent>
                  <stEvt:changed>/</stEvt:changed>
               </rdf:li>
               <rdf:li rdf:parseType="Resource">
                  <stEvt:action>converted</stEvt:action>
                  <stEvt:parameters>from application/postscript to application/vnd.adobe.illustrator</stEvt:parameters>
               </rdf:li>
               <rdf:li rdf:parseType="Resource">
                  <stEvt:action>saved</stEvt:action>
                  <stEvt:instanceID>xmp.iid:9591b2aa-7c84-eb40-81cb-ba28ee4931c0</stEvt:instanceID>
                  <stEvt:when>2014-01-28T17:34:34+01:00</stEvt:when>
                  <stEvt:softwareAgent>Adobe Illustrator CC (Windows)</stEvt:softwareAgent>
                  <stEvt:changed>/</stEvt:changed>
               </rdf:li>
               <rdf:li rdf:parseType="Resource">
                  <stEvt:action>converted</stEvt:action>
                  <stEvt:parameters>from application/postscript to application/vnd.adobe.illustrator</stEvt:parameters>
               </rdf:li>
               <rdf:li rdf:parseType="Resource">
                  <stEvt:action>saved</stEvt:action>
                  <stEvt:instanceID>xmp.iid:e43aa3f8-7efe-4452-a4cd-bd8f59791b5a</stEvt:instanceID>
                  <stEvt:when>2016-04-29T09:25:55+02:00</stEvt:when>
                  <stEvt:softwareAgent>Adobe Illustrator CC 2015 (Macintosh)</stEvt:softwareAgent>
                  <stEvt:changed>/</stEvt:changed>
               </rdf:li>
               <rdf:li rdf:parseType="Resource">
                  <stEvt:action>saved</stEvt:action>
                  <stEvt:instanceID>xmp.iid:673e89bd-525b-4dea-839f-228714659fa1</stEvt:instanceID>
                  <stEvt:when>2016-04-29T09:28:26+02:00</stEvt:when>
                  <stEvt:softwareAgent>Adobe Illustrator CC 2015 (Macintosh)</stEvt:softwareAgent>
                  <stEvt:changed>/</stEvt:changed>
               </rdf:li>
            </rdf:Seq>
         </xmpMM:History>
         <illustrator:StartupProfile>Print</illustrator:StartupProfile>
         <xmpTPg:HasVisibleOverprint>True</xmpTPg:HasVisibleOverprint>
         <xmpTPg:HasVisibleTransparency>False</xmpTPg:HasVisibleTransparency>
         <xmpTPg:NPages>1</xmpTPg:NPages>
         <xmpTPg:MaxPageSize rdf:parseType="Resource">
            <stDim:w>359.999909</stDim:w>
            <stDim:h>119.999900</stDim:h>
            <stDim:unit>Millimeters</stDim:unit>
         </xmpTPg:MaxPageSize>
         <xmpTPg:PlateNames>
            <rdf:Seq>
               <rdf:li>Black</rdf:li>
            </rdf:Seq>
         </xmpTPg:PlateNames>
         <xmpTPg:SwatchGroups>
            <rdf:Seq>
               <rdf:li rdf:parseType="Resource">
                  <xmpG:groupName>Default Swatch Group</xmpG:groupName>
                  <xmpG:groupType>0</xmpG:groupType>
                  <xmpG:Colorants>
                     <rdf:Seq>
                        <rdf:li rdf:parseType="Resource">
                           <xmpG:swatchName>Weiß</xmpG:swatchName>
                           <xmpG:mode>CMYK</xmpG:mode>
                           <xmpG:type>PROCESS</xmpG:type>
                           <xmpG:cyan>0.000000</xmpG:cyan>
                           <xmpG:magenta>0.000000</xmpG:magenta>
                           <xmpG:yellow>0.000000</xmpG:yellow>
                           <xmpG:black>0.000000</xmpG:black>
                        </rdf:li>
                        <rdf:li rdf:parseType="Resource">
                           <xmpG:swatchName>Schwarz</xmpG:swatchName>
                           <xmpG:mode>CMYK</xmpG:mode>
                           <xmpG:type>PROCESS</xmpG:type>
                           <xmpG:cyan>0.000000</xmpG:cyan>
                           <xmpG:magenta>0.000000</xmpG:magenta>
                           <xmpG:yellow>0.000000</xmpG:yellow>
                           <xmpG:black>100.000000</xmpG:black>
                        </rdf:li>
                        <rdf:li rdf:parseType="Resource">
                           <xmpG:swatchName>CMYK Rot</xmpG:swatchName>
                           <xmpG:mode>CMYK</xmpG:mode>
                           <xmpG:type>PROCESS</xmpG:type>
                           <xmpG:cyan>0.000000</xmpG:cyan>
                           <xmpG:magenta>100.000000</xmpG:magenta>
                           <xmpG:yellow>100.000000</xmpG:yellow>
                           <xmpG:black>0.000000</xmpG:black>
                        </rdf:li>
                        <rdf:li rdf:parseType="Resource">
                           <xmpG:swatchName>CMYK Gelb</xmpG:swatchName>
                           <xmpG:mode>CMYK</xmpG:mode>
                           <xmpG:type>PROCESS</xmpG:type>
                           <xmpG:cyan>0.000000</xmpG:cyan>
                           <xmpG:magenta>0.000000</xmpG:magenta>
                           <xmpG:yellow>100.000000</xmpG:yellow>
                           <xmpG:black>0.000000</xmpG:black>
                        </rdf:li>
                        <rdf:li rdf:parseType="Resource">
                           <xmpG:swatchName>CMYK Grün</xmpG:swatchName>
                           <xmpG:mode>CMYK</xmpG:mode>
                           <xmpG:type>PROCESS</xmpG:type>
                           <xmpG:cyan>100.000000</xmpG:cyan>
                           <xmpG:magenta>0.000000</xmpG:magenta>
                           <xmpG:yellow>100.000000</xmpG:yellow>
                           <xmpG:black>0.000000</xmpG:black>
                        </rdf:li>
                        <rdf:li rdf:parseType="Resource">
                           <xmpG:swatchName>CMYK Cyan</xmpG:swatchName>
                           <xmpG:mode>CMYK</xmpG:mode>
                           <xmpG:type>PROCESS</xmpG:type>
                           <xmpG:cyan>100.000000</xmpG:cyan>
                           <xmpG:magenta>0.000000</xmpG:magenta>
                           <xmpG:yellow>0.000000</xmpG:yellow>
                           <xmpG:black>0.000000</xmpG:black>
                        </rdf:li>
                        <rdf:li rdf:parseType="Resource">
                           <xmpG:swatchName>CMYK Blau</xmpG:swatchName>
                           <xmpG:mode>CMYK</xmpG:mode>
                           <xmpG:type>PROCESS</xmpG:type>
                           <xmpG:cyan>100.000000</xmpG:cyan>
                           <xmpG:magenta>100.000000</xmpG:magenta>
                           <xmpG:yellow>0.000000</xmpG:yellow>
                           <xmpG:black>0.000000</xmpG:black>
                        </rdf:li>
                        <rdf:li rdf:parseType="Resource">
                           <xmpG:swatchName>CMYK Magenta</xmpG:swatchName>
                           <xmpG:mode>CMYK</xmpG:mode>
                           <xmpG:type>PROCESS</xmpG:type>
                           <xmpG:cyan>0.000000</xmpG:cyan>
                           <xmpG:magenta>100.000000</xmpG:magenta>
                           <xmpG:yellow>0.000000</xmpG:yellow>
                           <xmpG:black>0.000000</xmpG:black>
                        </rdf:li>
                        <rdf:li rdf:parseType="Resource">
                           <xmpG:swatchName>C=15 M=100 Y=90 K=10</xmpG:swatchName>
                           <xmpG:mode>CMYK</xmpG:mode>
                           <xmpG:type>PROCESS</xmpG:type>
                           <xmpG:cyan>15.000000</xmpG:cyan>
                           <xmpG:magenta>100.000000</xmpG:magenta>
                           <xmpG:yellow>90.000000</xmpG:yellow>
                           <xmpG:black>10.000000</xmpG:black>
                        </rdf:li>
                        <rdf:li rdf:parseType="Resource">
                           <xmpG:swatchName>C=0 M=90 Y=85 K=0</xmpG:swatchName>
                           <xmpG:mode>CMYK</xmpG:mode>
                           <xmpG:type>PROCESS</xmpG:type>
                           <xmpG:cyan>0.000000</xmpG:cyan>
                           <xmpG:magenta>90.000000</xmpG:magenta>
                           <xmpG:yellow>85.000000</xmpG:yellow>
                           <xmpG:black>0.000000</xmpG:black>
                        </rdf:li>
                        <rdf:li rdf:parseType="Resource">
                           <xmpG:swatchName>C=0 M=80 Y=95 K=0</xmpG:swatchName>
                           <xmpG:mode>CMYK</xmpG:mode>
                           <xmpG:type>PROCESS</xmpG:type>
                           <xmpG:cyan>0.000000</xmpG:cyan>
                           <xmpG:magenta>80.000000</xmpG:magenta>
                           <xmpG:yellow>95.000000</xmpG:yellow>
                           <xmpG:black>0.000000</xmpG:black>
                        </rdf:li>
                        <rdf:li rdf:parseType="Resource">
                           <xmpG:swatchName>C=0 M=50 Y=100 K=0</xmpG:swatchName>
                           <xmpG:mode>CMYK</xmpG:mode>
                           <xmpG:type>PROCESS</xmpG:type>
                           <xmpG:cyan>0.000000</xmpG:cyan>
                           <xmpG:magenta>50.000000</xmpG:magenta>
                           <xmpG:yellow>100.000000</xmpG:yellow>
                           <xmpG:black>0.000000</xmpG:black>
                        </rdf:li>
                        <rdf:li rdf:parseType="Resource">
                           <xmpG:swatchName>C=0 M=35 Y=85 K=0</xmpG:swatchName>
                           <xmpG:mode>CMYK</xmpG:mode>
                           <xmpG:type>PROCESS</xmpG:type>
                           <xmpG:cyan>0.000000</xmpG:cyan>
                           <xmpG:magenta>35.000000</xmpG:magenta>
                           <xmpG:yellow>85.000000</xmpG:yellow>
                           <xmpG:black>0.000000</xmpG:black>
                        </rdf:li>
                        <rdf:li rdf:parseType="Resource">
                           <xmpG:swatchName>C=5 M=0 Y=90 K=0</xmpG:swatchName>
                           <xmpG:mode>CMYK</xmpG:mode>
                           <xmpG:type>PROCESS</xmpG:type>
                           <xmpG:cyan>5.000000</xmpG:cyan>
                           <xmpG:magenta>0.000000</xmpG:magenta>
                           <xmpG:yellow>90.000000</xmpG:yellow>
                           <xmpG:black>0.000000</xmpG:black>
                        </rdf:li>
                        <rdf:li rdf:parseType="Resource">
                           <xmpG:swatchName>C=20 M=0 Y=100 K=0</xmpG:swatchName>
                           <xmpG:mode>CMYK</xmpG:mode>
                           <xmpG:type>PROCESS</xmpG:type>
                           <xmpG:cyan>20.000000</xmpG:cyan>
                           <xmpG:magenta>0.000000</xmpG:magenta>
                           <xmpG:yellow>100.000000</xmpG:yellow>
                           <xmpG:black>0.000000</xmpG:black>
                        </rdf:li>
                        <rdf:li rdf:parseType="Resource">
                           <xmpG:swatchName>C=50 M=0 Y=100 K=0</xmpG:swatchName>
                           <xmpG:mode>CMYK</xmpG:mode>
                           <xmpG:type>PROCESS</xmpG:type>
                           <xmpG:cyan>50.000000</xmpG:cyan>
                           <xmpG:magenta>0.000000</xmpG:magenta>
                           <xmpG:yellow>100.000000</xmpG:yellow>
                           <xmpG:black>0.000000</xmpG:black>
                        </rdf:li>
                        <rdf:li rdf:parseType="Resource">
                           <xmpG:swatchName>C=75 M=0 Y=100 K=0</xmpG:swatchName>
                           <xmpG:mode>CMYK</xmpG:mode>
                           <xmpG:type>PROCESS</xmpG:type>
                           <xmpG:cyan>75.000000</xmpG:cyan>
                           <xmpG:magenta>0.000000</xmpG:magenta>
                           <xmpG:yellow>100.000000</xmpG:yellow>
                           <xmpG:black>0.000000</xmpG:black>
                        </rdf:li>
                        <rdf:li rdf:parseType="Resource">
                           <xmpG:swatchName>C=85 M=10 Y=100 K=10</xmpG:swatchName>
                           <xmpG:mode>CMYK</xmpG:mode>
                           <xmpG:type>PROCESS</xmpG:type>
                           <xmpG:cyan>85.000000</xmpG:cyan>
                           <xmpG:magenta>10.000000</xmpG:magenta>
                           <xmpG:yellow>100.000000</xmpG:yellow>
                           <xmpG:black>10.000000</xmpG:black>
                        </rdf:li>
                        <rdf:li rdf:parseType="Resource">
                           <xmpG:swatchName>C=90 M=30 Y=95 K=30</xmpG:swatchName>
                           <xmpG:mode>CMYK</xmpG:mode>
                           <xmpG:type>PROCESS</xmpG:type>
                           <xmpG:cyan>90.000000</xmpG:cyan>
                           <xmpG:magenta>30.000000</xmpG:magenta>
                           <xmpG:yellow>95.000000</xmpG:yellow>
                           <xmpG:black>30.000000</xmpG:black>
                        </rdf:li>
                        <rdf:li rdf:parseType="Resource">
                           <xmpG:swatchName>C=75 M=0 Y=75 K=0</xmpG:swatchName>
                           <xmpG:mode>CMYK</xmpG:mode>
                           <xmpG:type>PROCESS</xmpG:type>
                           <xmpG:cyan>75.000000</xmpG:cyan>
                           <xmpG:magenta>0.000000</xmpG:magenta>
                           <xmpG:yellow>75.000000</xmpG:yellow>
                           <xmpG:black>0.000000</xmpG:black>
                        </rdf:li>
                        <rdf:li rdf:parseType="Resource">
                           <xmpG:swatchName>C=80 M=10 Y=45 K=0</xmpG:swatchName>
                           <xmpG:mode>CMYK</xmpG:mode>
                           <xmpG:type>PROCESS</xmpG:type>
                           <xmpG:cyan>80.000000</xmpG:cyan>
                           <xmpG:magenta>10.000000</xmpG:magenta>
                           <xmpG:yellow>45.000000</xmpG:yellow>
                           <xmpG:black>0.000000</xmpG:black>
                        </rdf:li>
                        <rdf:li rdf:parseType="Resource">
                           <xmpG:swatchName>C=70 M=15 Y=0 K=0</xmpG:swatchName>
                           <xmpG:mode>CMYK</xmpG:mode>
                           <xmpG:type>PROCESS</xmpG:type>
                           <xmpG:cyan>70.000000</xmpG:cyan>
                           <xmpG:magenta>15.000000</xmpG:magenta>
                           <xmpG:yellow>0.000000</xmpG:yellow>
                           <xmpG:black>0.000000</xmpG:black>
                        </rdf:li>
                        <rdf:li rdf:parseType="Resource">
                           <xmpG:swatchName>C=85 M=50 Y=0 K=0</xmpG:swatchName>
                           <xmpG:mode>CMYK</xmpG:mode>
                           <xmpG:type>PROCESS</xmpG:type>
                           <xmpG:cyan>85.000000</xmpG:cyan>
                           <xmpG:magenta>50.000000</xmpG:magenta>
                           <xmpG:yellow>0.000000</xmpG:yellow>
                           <xmpG:black>0.000000</xmpG:black>
                        </rdf:li>
                        <rdf:li rdf:parseType="Resource">
                           <xmpG:swatchName>C=100 M=95 Y=5 K=0</xmpG:swatchName>
                           <xmpG:mode>CMYK</xmpG:mode>
                           <xmpG:type>PROCESS</xmpG:type>
                           <xmpG:cyan>100.000000</xmpG:cyan>
                           <xmpG:magenta>95.000000</xmpG:magenta>
                           <xmpG:yellow>5.000000</xmpG:yellow>
                           <xmpG:black>0.000000</xmpG:black>
                        </rdf:li>
                        <rdf:li rdf:parseType="Resource">
                           <xmpG:swatchName>C=100 M=100 Y=25 K=25</xmpG:swatchName>
                           <xmpG:mode>CMYK</xmpG:mode>
                           <xmpG:type>PROCESS</xmpG:type>
                           <xmpG:cyan>100.000000</xmpG:cyan>
                           <xmpG:magenta>100.000000</xmpG:magenta>
                           <xmpG:yellow>25.000000</xmpG:yellow>
                           <xmpG:black>25.000000</xmpG:black>
                        </rdf:li>
                        <rdf:li rdf:parseType="Resource">
                           <xmpG:swatchName>C=75 M=100 Y=0 K=0</xmpG:swatchName>
                           <xmpG:mode>CMYK</xmpG:mode>
                           <xmpG:type>PROCESS</xmpG:type>
                           <xmpG:cyan>75.000000</xmpG:cyan>
                           <xmpG:magenta>100.000000</xmpG:magenta>
                           <xmpG:yellow>0.000000</xmpG:yellow>
                           <xmpG:black>0.000000</xmpG:black>
                        </rdf:li>
                        <rdf:li rdf:parseType="Resource">
                           <xmpG:swatchName>C=50 M=100 Y=0 K=0</xmpG:swatchName>
                           <xmpG:mode>CMYK</xmpG:mode>
                           <xmpG:type>PROCESS</xmpG:type>
                           <xmpG:cyan>50.000000</xmpG:cyan>
                           <xmpG:magenta>100.000000</xmpG:magenta>
                           <xmpG:yellow>0.000000</xmpG:yellow>
                           <xmpG:black>0.000000</xmpG:black>
                        </rdf:li>
                        <rdf:li rdf:parseType="Resource">
                           <xmpG:swatchName>C=35 M=100 Y=35 K=10</xmpG:swatchName>
                           <xmpG:mode>CMYK</xmpG:mode>
                           <xmpG:type>PROCESS</xmpG:type>
                           <xmpG:cyan>35.000000</xmpG:cyan>
                           <xmpG:magenta>100.000000</xmpG:magenta>
                           <xmpG:yellow>35.000000</xmpG:yellow>
                           <xmpG:black>10.000000</xmpG:black>
                        </rdf:li>
                        <rdf:li rdf:parseType="Resource">
                           <xmpG:swatchName>C=10 M=100 Y=50 K=0</xmpG:swatchName>
                           <xmpG:mode>CMYK</xmpG:mode>
                           <xmpG:type>PROCESS</xmpG:type>
                           <xmpG:cyan>10.000000</xmpG:cyan>
                           <xmpG:magenta>100.000000</xmpG:magenta>
                           <xmpG:yellow>50.000000</xmpG:yellow>
                           <xmpG:black>0.000000</xmpG:black>
                        </rdf:li>
                        <rdf:li rdf:parseType="Resource">
                           <xmpG:swatchName>C=0 M=95 Y=20 K=0</xmpG:swatchName>
                           <xmpG:mode>CMYK</xmpG:mode>
                           <xmpG:type>PROCESS</xmpG:type>
                           <xmpG:cyan>0.000000</xmpG:cyan>
                           <xmpG:magenta>95.000000</xmpG:magenta>
                           <xmpG:yellow>20.000000</xmpG:yellow>
                           <xmpG:black>0.000000</xmpG:black>
                        </rdf:li>
                        <rdf:li rdf:parseType="Resource">
                           <xmpG:swatchName>C=25 M=25 Y=40 K=0</xmpG:swatchName>
                           <xmpG:mode>CMYK</xmpG:mode>
                           <xmpG:type>PROCESS</xmpG:type>
                           <xmpG:cyan>25.000000</xmpG:cyan>
                           <xmpG:magenta>25.000000</xmpG:magenta>
                           <xmpG:yellow>40.000000</xmpG:yellow>
                           <xmpG:black>0.000000</xmpG:black>
                        </rdf:li>
                        <rdf:li rdf:parseType="Resource">
                           <xmpG:swatchName>C=40 M=45 Y=50 K=5</xmpG:swatchName>
                           <xmpG:mode>CMYK</xmpG:mode>
                           <xmpG:type>PROCESS</xmpG:type>
                           <xmpG:cyan>40.000000</xmpG:cyan>
                           <xmpG:magenta>45.000000</xmpG:magenta>
                           <xmpG:yellow>50.000000</xmpG:yellow>
                           <xmpG:black>5.000000</xmpG:black>
                        </rdf:li>
                        <rdf:li rdf:parseType="Resource">
                           <xmpG:swatchName>C=50 M=50 Y=60 K=25</xmpG:swatchName>
                           <xmpG:mode>CMYK</xmpG:mode>
                           <xmpG:type>PROCESS</xmpG:type>
                           <xmpG:cyan>50.000000</xmpG:cyan>
                           <xmpG:magenta>50.000000</xmpG:magenta>
                           <xmpG:yellow>60.000000</xmpG:yellow>
                           <xmpG:black>25.000000</xmpG:black>
                        </rdf:li>
                        <rdf:li rdf:parseType="Resource">
                           <xmpG:swatchName>C=55 M=60 Y=65 K=40</xmpG:swatchName>
                           <xmpG:mode>CMYK</xmpG:mode>
                           <xmpG:type>PROCESS</xmpG:type>
                           <xmpG:cyan>55.000000</xmpG:cyan>
                           <xmpG:magenta>60.000000</xmpG:magenta>
                           <xmpG:yellow>65.000000</xmpG:yellow>
                           <xmpG:black>40.000000</xmpG:black>
                        </rdf:li>
                        <rdf:li rdf:parseType="Resource">
                           <xmpG:swatchName>C=25 M=40 Y=65 K=0</xmpG:swatchName>
                           <xmpG:mode>CMYK</xmpG:mode>
                           <xmpG:type>PROCESS</xmpG:type>
                           <xmpG:cyan>25.000000</xmpG:cyan>
                           <xmpG:magenta>40.000000</xmpG:magenta>
                           <xmpG:yellow>65.000000</xmpG:yellow>
                           <xmpG:black>0.000000</xmpG:black>
                        </rdf:li>
                        <rdf:li rdf:parseType="Resource">
                           <xmpG:swatchName>C=30 M=50 Y=75 K=10</xmpG:swatchName>
                           <xmpG:mode>CMYK</xmpG:mode>
                           <xmpG:type>PROCESS</xmpG:type>
                           <xmpG:cyan>30.000000</xmpG:cyan>
                           <xmpG:magenta>50.000000</xmpG:magenta>
                           <xmpG:yellow>75.000000</xmpG:yellow>
                           <xmpG:black>10.000000</xmpG:black>
                        </rdf:li>
                        <rdf:li rdf:parseType="Resource">
                           <xmpG:swatchName>C=35 M=60 Y=80 K=25</xmpG:swatchName>
                           <xmpG:mode>CMYK</xmpG:mode>
                           <xmpG:type>PROCESS</xmpG:type>
                           <xmpG:cyan>35.000000</xmpG:cyan>
                           <xmpG:magenta>60.000000</xmpG:magenta>
                           <xmpG:yellow>80.000000</xmpG:yellow>
                           <xmpG:black>25.000000</xmpG:black>
                        </rdf:li>
                        <rdf:li rdf:parseType="Resource">
                           <xmpG:swatchName>C=40 M=65 Y=90 K=35</xmpG:swatchName>
                           <xmpG:mode>CMYK</xmpG:mode>
                           <xmpG:type>PROCESS</xmpG:type>
                           <xmpG:cyan>40.000000</xmpG:cyan>
                           <xmpG:magenta>65.000000</xmpG:magenta>
                           <xmpG:yellow>90.000000</xmpG:yellow>
                           <xmpG:black>35.000000</xmpG:black>
                        </rdf:li>
                        <rdf:li rdf:parseType="Resource">
                           <xmpG:swatchName>C=40 M=70 Y=100 K=50</xmpG:swatchName>
                           <xmpG:mode>CMYK</xmpG:mode>
                           <xmpG:type>PROCESS</xmpG:type>
                           <xmpG:cyan>40.000000</xmpG:cyan>
                           <xmpG:magenta>70.000000</xmpG:magenta>
                           <xmpG:yellow>100.000000</xmpG:yellow>
                           <xmpG:black>50.000000</xmpG:black>
                        </rdf:li>
                        <rdf:li rdf:parseType="Resource">
                           <xmpG:swatchName>C=50 M=70 Y=80 K=70</xmpG:swatchName>
                           <xmpG:mode>CMYK</xmpG:mode>
                           <xmpG:type>PROCESS</xmpG:type>
                           <xmpG:cyan>50.000000</xmpG:cyan>
                           <xmpG:magenta>70.000000</xmpG:magenta>
                           <xmpG:yellow>80.000000</xmpG:yellow>
                           <xmpG:black>70.000000</xmpG:black>
                        </rdf:li>
                     </rdf:Seq>
                  </xmpG:Colorants>
               </rdf:li>
               <rdf:li rdf:parseType="Resource">
                  <xmpG:groupName>Grautöne</xmpG:groupName>
                  <xmpG:groupType>1</xmpG:groupType>
                  <xmpG:Colorants>
                     <rdf:Seq>
                        <rdf:li rdf:parseType="Resource">
                           <xmpG:swatchName>C=0 M=0 Y=0 K=100</xmpG:swatchName>
                           <xmpG:mode>CMYK</xmpG:mode>
                           <xmpG:type>PROCESS</xmpG:type>
                           <xmpG:cyan>0.000000</xmpG:cyan>
                           <xmpG:magenta>0.000000</xmpG:magenta>
                           <xmpG:yellow>0.000000</xmpG:yellow>
                           <xmpG:black>100.000000</xmpG:black>
                        </rdf:li>
                        <rdf:li rdf:parseType="Resource">
                           <xmpG:swatchName>C=0 M=0 Y=0 K=90</xmpG:swatchName>
                           <xmpG:mode>CMYK</xmpG:mode>
                           <xmpG:type>PROCESS</xmpG:type>
                           <xmpG:cyan>0.000000</xmpG:cyan>
                           <xmpG:magenta>0.000000</xmpG:magenta>
                           <xmpG:yellow>0.000000</xmpG:yellow>
                           <xmpG:black>89.999400</xmpG:black>
                        </rdf:li>
                        <rdf:li rdf:parseType="Resource">
                           <xmpG:swatchName>C=0 M=0 Y=0 K=80</xmpG:swatchName>
                           <xmpG:mode>CMYK</xmpG:mode>
                           <xmpG:type>PROCESS</xmpG:type>
                           <xmpG:cyan>0.000000</xmpG:cyan>
                           <xmpG:magenta>0.000000</xmpG:magenta>
                           <xmpG:yellow>0.000000</xmpG:yellow>
                           <xmpG:black>79.998800</xmpG:black>
                        </rdf:li>
                        <rdf:li rdf:parseType="Resource">
                           <xmpG:swatchName>C=0 M=0 Y=0 K=70</xmpG:swatchName>
                           <xmpG:mode>CMYK</xmpG:mode>
                           <xmpG:type>PROCESS</xmpG:type>
                           <xmpG:cyan>0.000000</xmpG:cyan>
                           <xmpG:magenta>0.000000</xmpG:magenta>
                           <xmpG:yellow>0.000000</xmpG:yellow>
                           <xmpG:black>69.999700</xmpG:black>
                        </rdf:li>
                        <rdf:li rdf:parseType="Resource">
                           <xmpG:swatchName>C=0 M=0 Y=0 K=60</xmpG:swatchName>
                           <xmpG:mode>CMYK</xmpG:mode>
                           <xmpG:type>PROCESS</xmpG:type>
                           <xmpG:cyan>0.000000</xmpG:cyan>
                           <xmpG:magenta>0.000000</xmpG:magenta>
                           <xmpG:yellow>0.000000</xmpG:yellow>
                           <xmpG:black>59.999100</xmpG:black>
                        </rdf:li>
                        <rdf:li rdf:parseType="Resource">
                           <xmpG:swatchName>C=0 M=0 Y=0 K=50</xmpG:swatchName>
                           <xmpG:mode>CMYK</xmpG:mode>
                           <xmpG:type>PROCESS</xmpG:type>
                           <xmpG:cyan>0.000000</xmpG:cyan>
                           <xmpG:magenta>0.000000</xmpG:magenta>
                           <xmpG:yellow>0.000000</xmpG:yellow>
                           <xmpG:black>50.000000</xmpG:black>
                        </rdf:li>
                        <rdf:li rdf:parseType="Resource">
                           <xmpG:swatchName>C=0 M=0 Y=0 K=40</xmpG:swatchName>
                           <xmpG:mode>CMYK</xmpG:mode>
                           <xmpG:type>PROCESS</xmpG:type>
                           <xmpG:cyan>0.000000</xmpG:cyan>
                           <xmpG:magenta>0.000000</xmpG:magenta>
                           <xmpG:yellow>0.000000</xmpG:yellow>
                           <xmpG:black>39.999400</xmpG:black>
                        </rdf:li>
                        <rdf:li rdf:parseType="Resource">
                           <xmpG:swatchName>C=0 M=0 Y=0 K=30</xmpG:swatchName>
                           <xmpG:mode>CMYK</xmpG:mode>
                           <xmpG:type>PROCESS</xmpG:type>
                           <xmpG:cyan>0.000000</xmpG:cyan>
                           <xmpG:magenta>0.000000</xmpG:magenta>
                           <xmpG:yellow>0.000000</xmpG:yellow>
                           <xmpG:black>29.998800</xmpG:black>
                        </rdf:li>
                        <rdf:li rdf:parseType="Resource">
                           <xmpG:swatchName>C=0 M=0 Y=0 K=20</xmpG:swatchName>
                           <xmpG:mode>CMYK</xmpG:mode>
                           <xmpG:type>PROCESS</xmpG:type>
                           <xmpG:cyan>0.000000</xmpG:cyan>
                           <xmpG:magenta>0.000000</xmpG:magenta>
                           <xmpG:yellow>0.000000</xmpG:yellow>
                           <xmpG:black>19.999700</xmpG:black>
                        </rdf:li>
                        <rdf:li rdf:parseType="Resource">
                           <xmpG:swatchName>C=0 M=0 Y=0 K=10</xmpG:swatchName>
                           <xmpG:mode>CMYK</xmpG:mode>
                           <xmpG:type>PROCESS</xmpG:type>
                           <xmpG:cyan>0.000000</xmpG:cyan>
                           <xmpG:magenta>0.000000</xmpG:magenta>
                           <xmpG:yellow>0.000000</xmpG:yellow>
                           <xmpG:black>9.999100</xmpG:black>
                        </rdf:li>
                        <rdf:li rdf:parseType="Resource">
                           <xmpG:swatchName>C=0 M=0 Y=0 K=5</xmpG:swatchName>
                           <xmpG:mode>CMYK</xmpG:mode>
                           <xmpG:type>PROCESS</xmpG:type>
                           <xmpG:cyan>0.000000</xmpG:cyan>
                           <xmpG:magenta>0.000000</xmpG:magenta>
                           <xmpG:yellow>0.000000</xmpG:yellow>
                           <xmpG:black>4.998800</xmpG:black>
                        </rdf:li>
                     </rdf:Seq>
                  </xmpG:Colorants>
               </rdf:li>
               <rdf:li rdf:parseType="Resource">
                  <xmpG:groupName>Leuchtende Farben</xmpG:groupName>
                  <xmpG:groupType>1</xmpG:groupType>
                  <xmpG:Colorants>
                     <rdf:Seq>
                        <rdf:li rdf:parseType="Resource">
                           <xmpG:swatchName>C=0 M=100 Y=100 K=0</xmpG:swatchName>
                           <xmpG:mode>CMYK</xmpG:mode>
                           <xmpG:type>PROCESS</xmpG:type>
                           <xmpG:cyan>0.000000</xmpG:cyan>
                           <xmpG:magenta>100.000000</xmpG:magenta>
                           <xmpG:yellow>100.000000</xmpG:yellow>
                           <xmpG:black>0.000000</xmpG:black>
                        </rdf:li>
                        <rdf:li rdf:parseType="Resource">
                           <xmpG:swatchName>C=0 M=75 Y=100 K=0</xmpG:swatchName>
                           <xmpG:mode>CMYK</xmpG:mode>
                           <xmpG:type>PROCESS</xmpG:type>
                           <xmpG:cyan>0.000000</xmpG:cyan>
                           <xmpG:magenta>75.000000</xmpG:magenta>
                           <xmpG:yellow>100.000000</xmpG:yellow>
                           <xmpG:black>0.000000</xmpG:black>
                        </rdf:li>
                        <rdf:li rdf:parseType="Resource">
                           <xmpG:swatchName>C=0 M=10 Y=95 K=0</xmpG:swatchName>
                           <xmpG:mode>CMYK</xmpG:mode>
                           <xmpG:type>PROCESS</xmpG:type>
                           <xmpG:cyan>0.000000</xmpG:cyan>
                           <xmpG:magenta>10.000000</xmpG:magenta>
                           <xmpG:yellow>95.000000</xmpG:yellow>
                           <xmpG:black>0.000000</xmpG:black>
                        </rdf:li>
                        <rdf:li rdf:parseType="Resource">
                           <xmpG:swatchName>C=85 M=10 Y=100 K=0</xmpG:swatchName>
                           <xmpG:mode>CMYK</xmpG:mode>
                           <xmpG:type>PROCESS</xmpG:type>
                           <xmpG:cyan>85.000000</xmpG:cyan>
                           <xmpG:magenta>10.000000</xmpG:magenta>
                           <xmpG:yellow>100.000000</xmpG:yellow>
                           <xmpG:black>0.000000</xmpG:black>
                        </rdf:li>
                        <rdf:li rdf:parseType="Resource">
                           <xmpG:swatchName>C=100 M=90 Y=0 K=0</xmpG:swatchName>
                           <xmpG:mode>CMYK</xmpG:mode>
                           <xmpG:type>PROCESS</xmpG:type>
                           <xmpG:cyan>100.000000</xmpG:cyan>
                           <xmpG:magenta>90.000000</xmpG:magenta>
                           <xmpG:yellow>0.000000</xmpG:yellow>
                           <xmpG:black>0.000000</xmpG:black>
                        </rdf:li>
                        <rdf:li rdf:parseType="Resource">
                           <xmpG:swatchName>C=60 M=90 Y=0 K=0</xmpG:swatchName>
                           <xmpG:mode>CMYK</xmpG:mode>
                           <xmpG:type>PROCESS</xmpG:type>
                           <xmpG:cyan>60.000000</xmpG:cyan>
                           <xmpG:magenta>90.000000</xmpG:magenta>
                           <xmpG:yellow>0.003100</xmpG:yellow>
                           <xmpG:black>0.003100</xmpG:black>
                        </rdf:li>
                     </rdf:Seq>
                  </xmpG:Colorants>
               </rdf:li>
            </rdf:Seq>
         </xmpTPg:SwatchGroups>
         <pdf:Producer>Adobe PDF library 9.90</pdf:Producer>
      </rdf:Description>
   </rdf:RDF>
</x:xmpmeta>
                                                                                                    
                                                                                                    
                                                                                                    
                                                                                                    
                                                                                                    
                                                                                                    
                                                                                                    
                                                                                                    
                                                                                                    
                                                                                                    
                                                                                                    
                                                                                                    
                                                                                                    
                                                                                                    
                                                                                                    
                                                                                                    
                                                                                                    
                                                                                                    
                                                                                                    
                                                                                                    
                           
<?xpacket end="w"?>
	</metadata>
<g>
	<defs>
		<rect id="SVGID_1_" x="215.6" y="33.9" width="382.1" height="272.3"/>
	</defs>
	<clipPath id="SVGID_2_">
		<use xlink:href="#SVGID_1_"  style="overflow:visible;"/>
	</clipPath>
	<path class="st0" d="M329,63.6c-4.2,1.3-9.3,1.6-10.9,5.5c2-0.7,5.8,1.3,5.5-1.6C319.2,65.6,330.5,67.1,329,63.6"/>
	<path class="st0" d="M445.1,155c0.5-6-4.4-6.6-8.2-8.2c-0.4,3.2-2.2,5.1-1.4,9.5c2.6,0.6,3.4,2.9,6.8,2.7c1-4.2-3.7-2.6-2.7-6.8
		C441.7,152.9,443.1,154.2,445.1,155"/>
	<path class="st0" d="M431.4,164.5c9.1-1.4,11.2,4.3,17.8,5.4C447.6,164.8,434.1,159.9,431.4,164.5"/>
	<path class="st0" d="M460.1,164.5c-4.9,0.9-10.6-4.4-12.3,1.4C451.5,165,458.7,167.6,460.1,164.5"/>
	<path class="st0" d="M563.5,171c3.6,3.4,6.2,8.5,9,13.1C574.9,177.5,568.1,172.3,563.5,171"/>
	<path class="st0" d="M420.5,254.4c-2.1-5.2-5.7-8.9-9.6-12.3c-3.8,5.1,1.2,10.9,2.7,15C415.4,253.6,416.5,252.9,420.5,254.4"/>
	<path class="st0" d="M475.1,272.2L475.1,272.2c-4.4-2.9-5.6-16.2-6.8-17.7c0.2,3.4,0.3,6.6-2.7,6.8c-1.8-1.4-1.7-4.6-4.1-5.3
		c-0.5-2.4,2.4-4.8-1.4-5.6c-1.3,1.1-0.6,4.2-3.1,4.2c-0.6-1.9-2.5-4.2-3.7-5.1c0-3.8-2.5-5.1-4.1-7.3c0.3,10.8-8.9,0-10.9,2.7
		c2.1,3.9,7.6,5.1,12.3,2.7c0.5,1,1,1.9,2,2.4c0.4,1.7,2.5,4.1,3.9,5.1c0.1,0.1,0.3,0.2,0.5,0.3l3.8,1c6.9,6.8,11.8,26.1,0.8,32.1
		c-0.8-8.2,4.4-13.9-1.4-20.4c0,3.3,0.6,7.1-1.8,8c-2.1-2.3,0.8-4.1-3.6-5.3c1.4,6.4-5.5,4.5-4.1,10.9c4.6,0.9,4.2-3.9,6.9-5.1
		c1.1,5.9-7,12.6-6.9,21.4c8,3.1,14.1-6.5,20.5-9.5c-0.6-8.3,2.5-12.3,0-19.1c1.3,0.8,1,3.3,3.2,3.2c0.7,4,4.8,5.6,6.2,8.8
		c-4.4,3.1-7.8,8.2-8.1,15.2c4.2,1.8,3.9-0.4,9.6,0c2.2-4.2,1.1-9.3,0.3-14C484.4,279.4,478,274.7,475.1,272.2"/>
	<path class="st0" d="M585.8,169.9c0,0-3.1-4.4-4.8-6.3c-1.7-1.9-6-6.2-6-6.2c-2.2-2.5-5.2-4.3-8.8-5.4c-0.1-0.1-0.2-0.2-0.2-0.2
		c-3.4-2.5-18.4-2.6-19.8-5.1c-7.8-9.3-23-23-25-26.4c-2-3.4-12.7-15.6-18.4-22c-3.6-3.6-4.7-3.5-14-11.6
		c-9.6-10.1-21.2-18.5-33.8-22.1c0,0-5.5-4.9-6.5-7.2c-1.6-4.9-14.9-19-26.6-21.5c-22.6-1.9-45.5-2-66.7,5.9c1.4,1,3.6,0.2,6.1,0.1
		c-4.2,2.8-17.3-1.5-22.6,2.6c-7.6,0.2-17.2,0-20.6,4.1c3.9-0.3,7.5-2.8,7.8,2.1c-3.4,0.8-5.4,2-8.1,3.4c-5.3,0.5-7.8,1.2-12,5.4
		c4.9-1.9,7.5-1.9,13.3-1.1c0.5,1.8,5.6,1.4,5.9,3.4c-1.4-0.2-6.8,0.9-7.2,1.8c-10.1,3.2-13.3,7.4-22.4,10.5c-0.1,3.5,0,3.3-1.7,5.4
		c-3,0.5-6.2,1.9-7.1,4.5c9.8-3.1,0.4,3.9,0,5.4c2,0.7,7.1-1.6,6.8,1.4c-4.8,0.8-9.9,2.4-12.5,5.5c-12.5,5.4-12.5,14.3-20.3,23.1
		c2.5,1.3,4.6-4.1,5.5,0c-2.2,13.7-12,19.8-19.1,28.6c6-0.3,12.1-4,13.6-5.1c7.3-0.1-2.6,2.6-2.7,6.4c-0.2,8.9-33,17.4-42.3,24.5
		c4.9,2.4,9.6,5,13.7,8.2c-2,1.2-4.3,2-4.1,5.5c9.5,7.8,12.9,21.7,17.8,34.1c12.8-0.1,26.5,0.9,30.1,15
		c12.9,2.6,16.5,14.4,21.9,24.5c3.9,1.1,3.5-1.9,6.8-1.4c7.8,13.3,20.7,15.5,26,32.7c4.5,0.7,6,1.2,9.6,0c-1-7.7-7.3-17.2-4.1-24.5
		c6.7,7.4,4.7,23.5,10.9,31.4c9.9-1.9,17.5-8.2,24.6-2.7c10.6-8.7,13.7-36,0-43.6c16-6.7,14,15.9,15,28.6c-5.6,0.2-9.7,12.3-4.1,15
		c1.4-1.8,1.3-5.1,4.1-5.4c1.6,6.2,5.7,1.4,9.6,5.4c9.6-0.9,6.4-14.5,13.7-17.7c4.4,1.5,7.5,4.3,6.8,10.9c-3.3,0.8-7,1.2-6.8,5.5
		c4.2,1.9,10.6-0.1,12.3,5.5c3.2,0,4-2.4,8.2-1.4c1.9-7.6,0.9-11.5-1.4-17.7c8.6-3.1,5.6,4,12.3,1.4c-1.6-15.3-3.2-26-9.6-34.1h6.8
		c0.3,4.6,5.1,8.7,0,10.9c12.6,0.9,2.3,16.7,8.2,23.2c-1.6,3.5-10.1,7.1-5.5,12.3c1.4-4.5,5.5,0.4,8.2-4.1
		c-1.8-11.4-1.1-24.8,9.6-23.2c-1.4-7.7-4.6-13.6-9.6-17.7c-1.2,6.2,2.3,7.7,2.7,12.3c-1.1,0.7-2.2,1.4-4.1,1.4
		c0.7-6.4-5.5-12.2-9.6-17.7c-5.4,3.9-13.4-1.1-10.9-9.5c-3.7-1-2.7,2.7-5.5,2.7c0-1.8-2.1-4.1-2.1-5.9c-3.2,0-4.2,0.5-7.4,0.5
		c-1.6-2-1.6-3.4,0-5.4c-12.5,2.9-11.8-7.3-19.1-9.5c0-2,5.1-5.6,1.4-6.8c-2.8,2.3-14.1-1.1-9.6-6.8c-10.8-2-18.4-9.6-28.7-8.2
		c-0.2-3.4-0.2-6.6,1.4-8.2c-2.3-0.3-3.5,2.3-4.1,0c-3.2-5.6,8.1-3.5,2.7-6.8c-18.1,10-19-13.7-39.6-6.8c1.4-5.5-2.1-6.1-4.1-8.2
		c4.5-1.4,7.6-4.2,9.6-8.2c-10.5-0.9-17.8,1.4-27.3,1.4c0.6-2.6,2.9-3.4,2.7-6.8c-2.2-0.1-5.2,0.7-5.5-1.4c1.8-1.4,5.1-1.3,5.5-4.1
		c-12.1,0.2-18.6,5.9-28.7,8.2c-0.4-2.2,1.3-2.3,1.4-4.1c-1.3-1.4-5-0.4-4.1-4.1c3-1.1,7.4-0.8,8.2-4.1c-2.4-0.8-5.7,4-6.8,0
		c5-6.8,17-6.7,23.2-12.3c-10.7,2-19.3,6.2-27.8,10.4c-18.4,6.9,2-6.1,7.3-9.1c-7.6,1.5-1.1-4.5,2.7-8.2c-9.6-0.5,2.6-3.7,1.4-6.8
		c-2.5-1.3-4.6,1.4-5.5-2.7c3.2-2.4,6.4-6.8,5.5-10.9c3.2-2.4,7.7-3.8,9.7-7.5c8.1-3.4,14.7-5.7,20.4-8.9c-3.4-0.1-9.9,1.7-10.9-1.4
		c2-0.8,2-2.3,4.1-4.1c-3.2,0.1-0.8-0.9-0.2-2.4c5.4-0.2,2.2-3.6,4.3-5.7c2.4-0.8,8,1.6,8.2-1.4c-1.9,0.1-3.9,0.2-4.1-1.4
		c6-1.9,11.3-4.5,15.9-7.9c0,0,0,0,0,0c6-1.2,18-3.2,23.7-0.4c-6.6-5.6-21.3-3.3-28.7-8.2c1.7,0.1,3.5,0.6,4.1-0.4
		c7.2-0.7,8.4-5.8,16-4.4c2.2-5.4-7.5,0.2-7-3.4c1.1-2.9,12.7,0.4,13.7-2.8c12.3-2,25.4,0.6,35.7,6c-3.1-2-11.3-5.4-13.5-8.4
		c16.1-8.2,37.2-4.7,56.1-4.9c10.1,0.5,31.3,14.8,30,29.9c-4.2,1.4-7.3-9.5-10.2-4.9c3.4,1.6,7.4,6,8.9,9.5
		c-3.4,1.8-7.8-5.3-8.9-1.3c3.1,1.4,5,4.1,5.5,8.2c-13.6,13.9-32.9,35.7-9.6,50.4c-2.2,0.2-2.8-1.2-4.8-1.3
		c-2.4-3.6-7.6-11.3-10.9-8.5c1.5,0.5,4,2.5,4.2,4.4c-4.4-1.4-6.1-5.6-10.8-6.8c-0.3,2.3,2.3,3.5,0,4.1c-9.1-1-8.7-6.8-19.1-8.2
		c-0.3,2.3,5.7,5.2,3.4,5.7c-9.5-0.9-34.2-7-41.5-10.2c3.1,11,36.3,6.5,39.1,17.8c4.9,2.1,2.1-5.4,5.4-4.9c0.6,2.6,0.7,5.8,0.5,9.2
		c-7.4,1-11.6-8.4-16.4-5.5c2.7,2.7,4.5,6.4,8.2,8.2c-0.3-4.3,9.6,2.5,12.3,4.1c0.3-2.3,1.6-5.9,3.9-6.4c4.3-6.1,1.9-0.6,6.1-2.3
		c0.4,7.4,7.2,19.7,6.4,23.7c-4.2,0.1-5.3-2.9-8.2-4.1c1.9,4.9,3.9,9.7,9.6,10.9c1.3-2.5-4.1-4.6,0-5.4c3.1,1,4.1,4.1,5.5,6.8
		c5.7-1.9,10.6,3.9,13.7,0c-10.2-2.1-18-6.6-20.5-16.4c1.8-0.5,0.7-4.8,2.7-5.1c0.8,3.8,2.9,10,8.2,9.2c-0.2-3.9-9-6.4-5.5-9.5
		c3.3,2.2,6,4.9,9.6,6.8c3.3-3.3,4-4,9.6-2.7c-2.8-9.6-17-7.9-20.3-17.1c1.4,0.5,3.2,1.9,4.8,2.7c4.1,6.3,22.1,5,21.4,7.5
		c-0.6,2.3-5.4,0.2-5.5,2.7c0,0.5,9.5,3,0,8.2c-0.9-1.1-6.4-4.3-6.8-1.4c5.6,2.6,12.1,5.1,10.9,10.9c4-3.5,6.7,3.5,9.6,0
		c-1.9-1.4-8.1-5.4-5.5-6.8c2.3-0.2,5.4,7.7,5.5,1.4c2.1-4.8-4.6-0.8-4.1-4.1c0.8-4.2,3-7,8.2-6.8c2.3,2.7-0.1,1.7,0,5.5
		c-1.8-0.5-2.2-2.4-4.1-2.7c-0.4,6.3,4.9,6.9,6.8,10.9c1.5-1.3,0.4-5,4.1-4.1c6.8,6,20.4,2.7,30.2,11.2c1.1,0.3,36.3,12.6,42.2,21.5
		c8.6,3.1,13.9,6.6,21.6,10.6c2.8,1.7,4.1,3.8,5.5,5c2.2,1.8,4.7,5.8,3,7.6c-2.4-2.2-6.4-2.7-8.2-5.5c-9.1,4.8-24.1-7.6-31.4-13.6
		c0.3-1.5,1.5-2.1,2.7-2.7c4.9,1.8,6.5,1.4,6.8-1.4c-21.9-12.7-40.5-20.5-42.2-21.5c-1.9-0.1-2.6,0.8-2.8,2.4c1,3.3,6,7.7,5.5,10.9
		c-0.5,7.6,6.3,11,4.1,16.4c-2.3,0.5-3.3-0.4-4.6-1c-0.2-3.4-0.4-6.7-4.1-6.5c0.4,2.7,1.2,5.1,3.2,6.3c-2.2,5.7-8.8-5.4-9.5-9.6
		c-2.6,5.3-0.8,6.4-1.4,9.5c-5.9,1.3-2.4-6.7-6.8-6.8v4.1c-1.6-0.2-1.1-2.5-1.4-4.1c-2.9,0.6-3.6-0.9-5.5-1.4
		c-1.9,0.8-0.2,5.2-2.7,5.4c0.5-2.3-1.1-2.6-2.7-2.7c0.2,3.4-0.7,5.7-2.7,6.8c0.1-4.6,0.4-9.5-2.7-10.9c-0.1,6.6,2.6,13,0,15
		c-2.4-2.2-8.4-0.7-9.6-4.1c0.6-1.7,1.8-2.8,4.1-2.7c-0.1,1.9-0.2,3.9,1.4,4.1c1.6-5.3-2.4-7,2.7-12.3c-5.9-0.5-4.5,8.8-10.7,8.1
		c0.4-2.8,3.6-3.1,4-5.9c-7.4,0.1-20.6-9.5-30.2-0.8c5.6,1.3,7.7-1.6,14.5-1.5c-0.3,2-6.3,1.9-6.3,4.2c4.3,1.7,8.4-3.1,10.9,1.4
		c-7.2,1,9.1,2.6-0.4,8c19.3-3.1,31.7,11,40,23.3c-3.2,0.4-5.2-0.2-6.8-1.4c-4.1,2.4,3.7,4.2,0,5.5c-1.6-1.1-3.7-1.8-6.8-1.4
		c-0.4,5.7,12.4,3,6.8,9.5c7.3,3.2,17.4,10.8,17.8,16.4c-3-0.4-2.7-4-6-4.1c-0.4-4.9-5.4-0.2-0.8,0.1c3.9,5.1,7.9,10.2,10.9,16.3
		c-6.4-2-9-7.8-15.8-9.4l-0.4,0.1c7,8.2,17.9,17.9,19.2,25.1c-7.2-1.4-15-11.9-22.1-9c11.5,1.8,4.2,5.8,8.2,6.8
		c0.2-0.1,0.4-0.1,0.6-0.2c0,1.2,0.6,2.4,1.2,2.8c0.9,3.6,7.1,11.2,10.1,11.6v2.3c-1.6-1.6-4.8-1.5-8.2-1.4c-0.3,2.3,2.3,3.5,0,4.1
		c-2.7,0-1.7-3.7-5.5-2.7c3.5,9.7,9.8,16.5,20.5,19.1c-0.1-8.1-10.9-12.8-9.6-17.7c2.1,0.3,6.4,5.2,8.2,1.4c-3.4-0.1-2.1-5-5.2-5.4
		c-1.2-2-6.8-9.1-9.5-11.1c0-1-0.2-2.5-0.8-3.1c6-1.2,9.4,5.6,16.8,5.9c-3.9-7.5-7.9-11.5-11.7-19.1c3.9,1.6,6.9,4,9.6,6.8
		c0.6-7-5.3-7.5-5.5-13.6c1.1,0.3,0,1.4,1.4,1.4c0.7-14.6-24.8-21.8-20.5-30c-0.4,0.7,5,1.3,1.4-4.1h8.2
		c-2.3-6.2-14.3-8.9-10.9-16.3c-6.4,0.5-12.8-6.3-8.2-12.3c2.3,5.3,12.5-2,8.2,5.5c4.3-0.3,10.8-5.5,15-1.4
		c-1.5,3.2-9.7,6.6-5.5,10.9c1.5-3.5,3.5-6.6,6.8-8.2c1,4.2-2.4,4-1.4,8.2c3.9-2.5,4-8.7,8.2-10.9c-0.4,4.2-3,6.1-4.1,9.5
		c5.1,0.1,5.7-7.3,9.4-8.6c14.8,9.6-1.2,43.6,1.7,40c7.8-9.7,3.8-2.1,1.9,3.5c11.1-11.7,0.4,6.8,4.3,2.1c5-6.1,20.6-26.7,27.8-42.5
		c6.6,7.5,21.8,6.4,28.7,13.6c2.4,7-7.1,9.1-2.7,13.6C587,217.3,597.7,186.2,585.8,169.9 M238.4,175.6c6.3-12.5,16.1-8.4,22.3-15.8
		C266.1,163.8,247.9,165.8,238.4,175.6 M244.3,190.4c3.3-4,10.2-4.3,16.4-5.5C259.1,190.6,251.5,190.3,244.3,190.4 M259.5,207
		c6-2.8,12.1-13.1,16.5-11.9C271.2,201.1,266.1,208.1,259.5,207 M282.5,217.6c5.3,0.3,8.6-1.4,9.6-5.5c2.6,0.6,5.9,0.5,5.5,4.1
		c-5.6,0.3-7.2,4.6-12.3,5.5C284.4,220.3,282.1,220.3,282.5,217.6 M291.6,192c5,3.7-6.9,7.4-8.3,9.5
		C281.6,199.1,292.5,195.1,291.6,192 M312.6,198.6c-9.4,5.2-18.5,10.6-30.1,13.6C290,205.9,302,197.3,312.6,198.6 M304.4,209.5
		c2.6-3.8,7.5-5.3,12.3-6.8C315.9,208.2,309.3,208,304.4,209.5 M324.9,212.2c3.2,2.8-4.2,6.6-9.6,5.5
		C317.9,215.2,322.3,214.6,324.9,212.2 M304.4,249c-4.1-4.6,0.8-11.9,1.4-16.4C312.7,235.3,306,246,304.4,249 M293.7,234.9
		c-3.7-6.4,8.2-10.5,11.4-11.8C301.7,232.1,298.4,227.2,293.7,234.9 M301.7,253.1c5.8-1.5,10.3-4.2,16.4-5.5
		c1.6,0.2,1.2,2.5,1.4,4.1c-6-0.6-10.6,0.4-13.7,2.7c1.1,3.4,3.7,5.4,4.1,9.5C305.1,262.3,303.5,257.6,301.7,253.1 M329,273.5
		c-6.2-1.1-5.4-9.1-8.2-13.6c-2.6-0.3-3,1.5-5.5,1.4c0.3-2.6-1.5-3-1.4-5.5c3.6,3.8,3-1.6,6.8-1.4
		C325.1,259.2,330.6,262.9,329,273.5 M335.8,261.3c4.2,2.1,6.6,6.1,6.8,12.3C337.3,272.5,336.1,267.3,335.8,261.3 M346.7,284.4
		c-2.6-3.3-0.9-11-1.4-16.4h4.1C350.4,271.8,354,284.8,346.7,284.4 M353.6,269.4c-5.5-1.4-1.3-8.2,1.4-9.5c0.1-5.2-9.5-7.1-2.7-10.9
		c-5.2-3-11.1,1.4-17.8-1.4c3.1-5.8,10.7,0.9,13.7-5.4c8.9,3.1,5.5,11.2,10.9,16.4C359.4,264.3,355.1,265.5,353.6,269.4
		 M330.4,242.2c0.8-6.9,3.9-11.6,8.2-15C340.2,231.2,335.2,240.1,330.4,242.2 M398.7,240.8c14.5-5,24.3,3.1,28.7,15
		c-9.9,6.6-3.5,18.1-9.6,31.3c-9.8-6.2,9.3-26.5-6.8-27.3c0.2-9.3-8.3-9.9-12.3-15V240.8z M383.6,228.5c4.6,0.4,3.8,6.2,4.1,10.9
		c8.4,1.4,12.8,13.3,12.3,19.1c-6.1-2.1-5.6-10.8-8.2-16.4c-4.2,1-5-1.4-8.2-1.4c0.8,6.5,6.3,8.2,6.8,15c-3.9-1.1-3.5,1.9-6.8,1.4
		c5.8-6.9-1.1-8.5-6.8-10.9C375.6,236.1,386.4,236.3,383.6,228.5 M375.3,230.8c-0.9,5.3,0.1,3.9-1.2,7.3h-1.4
		c-1.1-2.5-1-6.7-1.5-9.9C373.1,228.2,373.5,230.8,375.3,230.8 M375.4,247.6c-3.6,3.9-9.6-1.3-9.6-5.4
		C372.7,240.3,371.2,246.8,375.4,247.6 M364.5,223.1c-5.8,11.2-2.1,23.2,1.4,28.6c-12.5-3.6-9-17.1-15-28.6c0.2-1.6,2.5-1.2,4.1-1.4
		c0.3,2.8,2.3,9.2,0.8,12.4C367,236.3,352.8,221.3,364.5,223.1 M356.3,209.5c-10.9,10.5-29.3,13.4-30.1,34.1c3.5,1.8,10,5.4,6.8,9.5
		c-6.2,0.8-5.8-5.1-12.3-4.1c5.7-2,2.5-16,1.4-23.2c8.7,1.7,19.6-8.1,20.5-13.6C345.7,209.7,352.4,211,356.3,209.5 M344,198.6
		c-4.8,4.9-8.1,7.4-15,4.1c-1,3.9-5.8,8.6-9.6,5.5c1.1-3.9,6.6-3.4,9.6-5.5C334.3,201.6,337.4,198.3,344,198.6 M326.3,193.1
		c-2.9,3-3.4,8.4-10.9,6.8C318.7,197.4,321.5,194.3,326.3,193.1 M316.7,189c-3,4.7-9.7,5.8-17.8,5.5
		C304,191.8,308.6,188.7,316.7,189 M301.8,174.6c-1.7,5.3-8,8-15.9,9.7C290.2,180.5,293.9,176.3,301.8,174.6 M289.4,164.5
		c-0.2,3-5.8,0.6-8.2,1.4C281.3,162.8,287,165.3,289.4,164.5 M279,177c0.3-2.6-0.9-2.3-0.7-4.7c2.6,0.3,2.4-2.3,4.9-2.1
		c-3.8,3.6,0.1,2.8-0.1,6.6c-4.8,4.3-10.1,2.7-17.7,8.3C266.4,178.9,274.5,179.7,279,177 M266.1,174c-1.9,2.1-4.6,3.3-8.7,3.3
		c-0.6,1.4-4.6,0.8-5,2.2c-3.5-0.5,0.9-4.1,3.8-3.3C259.3,174.5,263.2,171.5,266.1,174 M427.5,135c-4.7-1.6-9.4-9.5-13.9-11.4
		C418.1,120.2,426.2,130.8,427.5,135 M514.7,226.6c2.2-3.3,4.6-15.3,5.5-11.2C521.2,219.5,514.7,226.6,514.7,226.6 M525.4,220.6
		c-1,4.5-7.9,10.6-7.9,10.6C519.4,228.6,526.4,216.1,525.4,220.6 M519.9,222.3c0,0,7.5-13,8.8-16.1
		C531.3,205.5,524.1,219.2,519.9,222.3 M454.2,103.5c-4.2,0.7-9.1,4.5-9.2,7.1c0.2,0.9-0.4,3.4,6.2,3.8c5.2-0.4,7.2-5.4,7-8.8
		c10.8,12.7-14.1,16.2-16.8,8c-0.8-3-1.2-7.3,0.9-8.5C444.6,103.2,450.1,102,454.2,103.5 M464.2,119.1c-1.8,3.3-10.2,6.1-18.9,4.6
		c-12.5-2.7-16-28.4,3.4-25.2c-2.6,2.5-8.7,0.8-10.5,6.7c-2.3,11.6,5,15.4,6.9,16.1c1,0.7,19.5,1.9,18.9-8.8l-0.5-1.9
		C465.8,111.7,466.3,115.7,464.2,119.1 M584.9,191.6c-1.6-0.2-3.9,0.2-4.1-1.4c-0.2-1.6,0.2-3.9-1.4-4.1c-2.5,4.9,1.3,9.1-1.4,12.3
		c-1.7-1.8-4.1-2.7-1.4-5.5c-4-0.3-4.8,2.3-7,3.8c-0.5-1.5-4.3-4.7-6.7-6.2c-5.5-4.6-10.2-5.4-13.7-11.2
		c2.4-11.3-5.2-26.3-15.9-35.2c-0.6-0.4-3.9-2.6-4.8-4.5c-1.9-2.3-2.5-3.6-7.9-7.4c-11.3-6.9-18.7-14.7-24.6-25.1
		c-11-14.6-30.7-22-46.5-32.7c1.6-2.6,0.6-6.5,3.1-8.2c23.5,6.5,57.5,44.4,69.8,58.3c9.9,11.2,23,23,31.9,35.9
		c4.3-2.6-4.7-6.5-3.9-10.2c2.1,0,10.8,2,13,3.1c3.1,1.6,4.4,8.7,7.2,13.8c-5-3.2-9.6-6.7-12.3-12.3c0.2,8.9,13.3,16.7,19.1,24.5
		c0.2-3.4-3-5.9-3.6-8.4c9.2-7.3-5.8-10.5-7.3-16.1c4.1-0.3,6,2.1,7.7,3.7c2.9,2.7,8.6,8.2,10.2,11.2c4.5,6.2,8.2,24.1,1.8,31.3
		C586.9,196.9,583.8,196.4,584.9,191.6"/>
	<path class="st0" d="M486.1,291.2c0.4,4.6-1.8,11.8,4.1,10.9C491.4,298.6,491,292.2,486.1,291.2"/>
</g>
<g>
	<defs>
		<rect id="SVGID_3_" x="28.3" y="33.9" width="964.5" height="272.3"/>
	</defs>
	<clipPath id="SVGID_4_">
		<use xlink:href="#SVGID_3_"  style="overflow:visible;"/>
	</clipPath>
	<path class="st1" d="M776.9,163.9c-0.7-6-3.4-11-8.2-14.9c-4.8-4-11.1-6-19-6c-9.1,0-16.4,3-21.9,9.1c-5.5,6.1-8.3,14.1-8.3,24.1
		c0,9.9,2.7,17.7,8.2,23.4c5.2,5.7,12,8.5,20.2,8.5c5,0,9.2-1,12.6-3.1c2-1.2,4.2-3.3,6.7-6.2l1.3,7.7h8.6v-33.3h-25.8v10.3h14.3
		c-0.6,4-2.4,7.3-5.1,9.8c-2.8,2.5-6.3,3.7-10.7,3.7c-4.4,0-8.4-1.6-11.9-4.7c-3.5-3.2-5.2-8.5-5.2-16.2c0-7.5,1.6-13.2,4.8-17
		c3.2-3.8,7.3-5.6,12.3-5.6c2.6,0,5,0.5,7.1,1.4c3.8,1.7,6.2,4.6,7.2,8.9H776.9z M712.1,164.2c0-6.7-1.8-11.6-5.5-14.8
		c-3.6-3.2-8.5-4.8-14.7-4.8h-26.6v62h12.9v-22.3h12.9c6.7,0,11.9-1.5,15.5-4.5C710.3,176.7,712.1,171.5,712.1,164.2 M699.2,164.3
		c0,3.2-0.8,5.6-2.5,7.1c-1.6,1.5-3.9,2.2-6.9,2.2h-11.7v-18.2h11.7c3,0,5.3,0.7,6.9,2.1C698.4,158.7,699.2,161,699.2,164.3
		 M612.5,206.5h12.9v-26h27.5v-10.8h-27.5v-14.3h31.3v-10.9h-44.2V206.5z M176.4,144.5h-29.9v62h27.9c3.1,0,6.1-0.3,8.8-0.8
		c2.7-0.6,5-1.6,7-3.1c1.8-1.3,3.2-2.9,4.4-4.9c1.8-2.9,2.8-6.2,2.8-9.9c0-3.6-0.8-6.6-2.4-9.1c-1.6-2.5-4-4.3-7.2-5.5
		c2.1-1.1,3.7-2.2,4.7-3.5c1.9-2.3,2.9-5.3,2.9-9.1c0-3.7-0.9-6.8-2.8-9.5C189.3,146.8,183.9,144.7,176.4,144.5 M174,179.2
		c2.7,0,4.7,0.4,6.2,1c2.6,1.2,3.9,3.4,3.9,6.6c0,3.8-1.4,6.4-4.1,7.7c-1.5,0.7-3.6,1.1-6.3,1.1h-15v-16.5H174z M172.3,155.3
		c3,0,5.4,0.3,7.3,1c2.2,0.9,3.3,2.8,3.3,5.7c0,2.6-0.8,4.4-2.5,5.4c-1.7,1-3.9,1.5-6.6,1.5h-15.1v-13.7H172.3z M135.8,164.2
		c0-6.7-1.8-11.6-5.5-14.8c-3.6-3.2-8.5-4.8-14.7-4.8H89.1v62H102v-22.3h12.9c6.7,0,11.9-1.5,15.5-4.5
		C134,176.7,135.8,171.5,135.8,164.2 M123,164.3c0,3.2-0.8,5.6-2.5,7.1c-1.6,1.5-3.9,2.2-6.9,2.2H102v-18.2h11.7
		c3,0,5.3,0.7,6.9,2.1C122.2,158.7,123,161,123,164.3 M28.3,187.4c0,6.4,2.3,11.5,7,15.2c4.7,3.7,11.1,5.5,19.2,5.5
		c8,0,14.2-1.9,18.5-5.6c4.4-3.7,6.6-8.4,6.6-14.1c0-5.5-1.8-9.7-5.5-12.7c-2.4-1.9-6-3.4-10.7-4.5l-10.9-2.6
		c-4.2-1-6.9-1.8-8.2-2.6c-2-1.1-3-2.7-3-5c0-2.4,1-4.3,3.1-5.6c2-1.4,4.8-2,8.2-2c3.1,0,5.6,0.5,7.7,1.6c3.1,1.6,4.8,4.2,5,7.9
		h12.4c-0.2-6.6-2.7-11.6-7.3-15.1c-4.7-3.5-10.3-5.2-16.9-5.2c-7.9,0-13.9,1.8-18,5.5c-4.1,3.7-6.1,8.3-6.1,13.8
		c0,6.1,2.1,10.5,6.3,13.4c2.5,1.7,7,3.3,13.6,4.8l6.7,1.5c3.9,0.8,6.8,1.8,8.6,2.9c1.8,1.1,2.7,2.7,2.7,4.8c0,3.5-1.8,5.9-5.5,7.2
		c-1.9,0.7-4.5,1-7.6,1c-5.2,0-8.9-1.3-11-3.8c-1.2-1.4-2-3.5-2.4-6.3H28.3z"/>
	<path class="st1" d="M934.5,295.8h2.9v-9c0-1.1,0.1-2,0.2-2.6c0.1-0.6,0.5-1.2,0.9-1.8c0.6-0.7,1.3-1.2,2.1-1.4
		c0.4-0.1,1-0.2,1.7-0.2c1.3,0,2.3,0.5,2.8,1.6c0.3,0.6,0.5,1.5,0.5,2.5v10.8h2.9v-11c0-1.7-0.2-3.1-0.7-4c-0.9-1.7-2.5-2.5-4.9-2.5
		c-1.1,0-2.1,0.2-3,0.7c-0.9,0.4-1.8,1.2-2.6,2.2v-2.4h-2.7V295.8z M916.2,278.6v11.7c0,1.5,0.2,2.6,0.7,3.5
		c0.9,1.6,2.5,2.4,4.9,2.4c1.5,0,2.8-0.4,3.9-1.3c0.5-0.4,1-1,1.4-1.6l0,2.5h2.7v-17.2h-2.9v8.4c0,1.7-0.2,3-0.6,4
		c-0.7,1.8-2,2.7-4,2.7c-1.4,0-2.3-0.5-2.8-1.5c-0.3-0.6-0.4-1.3-0.4-2.1v-11.4H916.2z M905.4,295.8h2.9v-9.9c0-1.2,0.4-2.3,1.2-3.2
		c0.8-0.9,1.9-1.4,3.3-1.4c0.2,0,0.3,0,0.5,0c0.1,0,0.3,0,0.5,0.1v-3c-0.3,0-0.5,0-0.7-0.1c-0.1,0-0.2,0-0.3,0c-1.1,0-2.2,0.4-3,1.2
		c-0.9,0.8-1.4,1.5-1.6,2.1v-3h-2.7V295.8z M898,275.5h2.9v-3.3H898V275.5z M898,295.8h2.9v-17.1H898V295.8z M882.9,271.6
		c-3.2,0-5.8,1.1-7.8,3.3c-2.1,2.3-3.2,5.5-3.2,9.4c0,3.9,1.1,7.1,3.2,9.3c2,1.8,4.3,2.7,7.1,2.7c2.1,0,3.9-0.4,5.2-1.2
		c0.8-0.5,1.8-1.3,2.8-2.5l0.8,3h2.1v-12.6h-10.3v2.6h7.4c0,2.8-0.7,4.7-2.1,6c-1.4,1.2-3.1,1.9-5.2,1.9c-2.7,0-4.7-0.9-5.9-2.6
		c-1.2-1.8-1.8-4-1.8-6.8c0-3.2,0.7-5.7,2.2-7.3c1.5-1.6,3.2-2.5,5.4-2.5c1.8,0,3.3,0.4,4.5,1.2c1.2,0.8,2,2,2.3,3.8h3.2
		c-0.5-3.1-1.9-5.2-4.2-6.5C887,272.1,885.1,271.6,882.9,271.6 M852,278.1c-2.5,0-4.4,0.9-5.9,2.6c-1.4,1.7-2.2,4-2.2,6.9
		c0,2.7,0.7,4.8,2.1,6.4c1.4,1.6,3.2,2.4,5.6,2.4c2.8,0,4.9-0.9,6.2-2.7c1.3-1.8,2-4.1,2-6.8c0-2.9-0.8-5-2.3-6.5
		C856.1,278.9,854.2,278.1,852,278.1 M851.9,293.9c-1.7,0-3-0.6-3.8-1.8c-0.8-1.2-1.2-2.7-1.2-4.6c0-1.9,0.4-3.5,1.2-4.9
		c0.8-1.3,2.1-2,3.8-2c2,0,3.4,0.8,4.2,2.4c0.5,1,0.8,2.3,0.8,3.9c0,1.8-0.4,3.4-1.1,4.8C855.1,293.2,853.8,293.9,851.9,293.9
		 M834.3,295.8h2.9v-9.9c0-1.2,0.4-2.3,1.2-3.2c0.8-0.9,1.9-1.4,3.3-1.4c0.2,0,0.3,0,0.5,0c0.1,0,0.3,0,0.5,0.1v-3
		c-0.3,0-0.5,0-0.7-0.1c-0.1,0-0.2,0-0.3,0c-1.1,0-2.1,0.4-3,1.2c-0.9,0.8-1.4,1.5-1.6,2.1v-3h-2.7V295.8z M827.3,279
		c0,1.5-0.4,2.6-1.3,3.2c-0.9,0.6-2,0.9-3.5,0.9h-6.3V275h6.3c1.2,0,2.2,0.2,2.9,0.5C826.7,276.1,827.3,277.3,827.3,279
		 M813.1,295.8h3.2v-9.9h7.3c2.4,0,4.1-0.7,5.2-2c1.1-1.4,1.7-3,1.7-4.8c0-2.1-0.6-3.8-1.9-5c-1.3-1.2-3-1.8-5-1.8h-10.5V295.8z
		 M757.3,278.1c-2.4,0-4.4,0.9-5.9,2.6c-1.5,1.7-2.2,4-2.2,6.9c0,2.7,0.7,4.8,2.1,6.4c1.4,1.6,3.2,2.4,5.6,2.4
		c2.8,0,4.9-0.9,6.2-2.7c1.3-1.8,2-4.1,2-6.8c0-2.9-0.8-5-2.3-6.5C761.4,278.9,759.5,278.1,757.3,278.1 M757.2,293.9
		c-1.7,0-3-0.6-3.8-1.8c-0.8-1.2-1.2-2.7-1.2-4.6c0-1.9,0.4-3.5,1.2-4.9c0.8-1.3,2.1-2,3.8-2c2,0,3.3,0.8,4.2,2.4
		c0.5,1,0.8,2.3,0.8,3.9c0,1.8-0.3,3.4-1,4.8C760.4,293.2,759.1,293.9,757.2,293.9 M741.9,278.6h-2.3v2.4h2.3v11.4
		c0,1.1,0.2,2,0.7,2.7c0.5,0.7,1.4,1,2.7,1c0.4,0,0.8,0,1.2-0.1c0.4,0,0.7-0.1,1-0.2v-2.3c-0.2,0-0.4,0-0.6,0.1c-0.2,0-0.3,0-0.5,0
		c-0.5,0-0.9-0.1-1.1-0.2c-0.4-0.2-0.6-0.6-0.6-1.2V281h2.7v-2.4h-2.7v-4.8h-2.9V278.6z M725.3,285.8c0.1-1.5,0.5-2.7,1.4-3.6
		c0.9-1,2-1.4,3.3-1.4c1.8,0,3.1,0.7,3.9,2.1c0.4,0.7,0.7,1.7,0.8,3H725.3z M730.2,278.2c-2.4,0-4.3,0.9-5.8,2.6
		c-1.5,1.7-2.2,3.9-2.2,6.7c0,2.8,0.7,5,2.2,6.5c1.5,1.6,3.3,2.3,5.4,2.3c0.9,0,1.6-0.1,2.3-0.3c1.3-0.3,2.4-0.9,3.2-1.7
		c0.5-0.5,1-1.1,1.4-1.9c0.4-0.8,0.7-1.5,0.7-2.1h-2.8c-0.2,0.8-0.6,1.4-1.1,2c-0.9,1-2.1,1.5-3.6,1.5c-1.6,0-2.8-0.5-3.5-1.6
		c-0.8-1.1-1.2-2.5-1.2-4.2h12.5c0-1.7-0.1-3-0.2-3.8c-0.2-1.2-0.6-2.2-1.1-3c-0.6-0.9-1.5-1.6-2.6-2.2
		C732.5,278.5,731.4,278.2,730.2,278.2 M704.6,302.6h2.9v-8.8c0.6,0.8,1.2,1.3,1.7,1.7c0.9,0.6,2,0.8,3.3,0.8c1.6,0,3.1-0.5,4.3-1.5
		c2-1.6,2.9-4.3,2.9-8c0-2.8-0.7-4.9-2-6.4c-1.4-1.5-3-2.2-5-2.2c-1.3,0-2.5,0.3-3.4,1c-0.7,0.4-1.3,1-1.9,1.8v-2.3h-2.8V302.6z
		 M712.1,293.8c-2,0-3.4-0.9-4.1-2.7c-0.4-0.9-0.6-2.1-0.6-3.4c0-1.6,0.2-3,0.6-4.1c0.7-2,2.1-3,4.1-3c2,0,3.4,0.9,4.1,2.8
		c0.4,1,0.6,2.2,0.6,3.5c0,2.2-0.4,3.9-1.3,5.1C714.6,293.3,713.4,293.8,712.1,293.8 M697.6,275.5h2.9v-3.3h-2.9V275.5z
		 M697.6,295.8h2.9v-17.1h-2.9V295.8z M682.4,271.6c-3.2,0-5.8,1.1-7.8,3.3c-2.1,2.3-3.2,5.5-3.2,9.4c0,3.9,1.1,7.1,3.2,9.3
		c2,1.8,4.3,2.7,7.1,2.7c2.1,0,3.9-0.4,5.2-1.2c0.8-0.5,1.8-1.3,2.8-2.5l0.8,3h2v-12.6h-10.3v2.6h7.4c0,2.8-0.7,4.7-2.1,6
		c-1.4,1.2-3.1,1.9-5.2,1.9c-2.7,0-4.7-0.9-5.9-2.6c-1.2-1.8-1.8-4-1.8-6.8c0-3.2,0.7-5.7,2.2-7.3c1.5-1.6,3.3-2.5,5.4-2.5
		c1.8,0,3.3,0.4,4.5,1.2c1.2,0.8,2,2,2.3,3.8h3.2c-0.5-3.1-1.9-5.2-4.2-6.5C686.5,272.1,684.6,271.6,682.4,271.6 M651.6,278.1
		c-2.4,0-4.4,0.9-5.8,2.6c-1.5,1.7-2.2,4-2.2,6.9c0,2.7,0.7,4.8,2.1,6.4c1.4,1.6,3.2,2.4,5.6,2.4c2.8,0,4.9-0.9,6.2-2.7
		c1.3-1.8,2-4.1,2-6.8c0-2.9-0.8-5-2.3-6.5C655.6,278.9,653.7,278.1,651.6,278.1 M651.4,293.9c-1.7,0-3-0.6-3.8-1.8
		c-0.8-1.2-1.2-2.7-1.2-4.6c0-1.9,0.4-3.5,1.2-4.9c0.8-1.3,2.1-2,3.8-2c2,0,3.3,0.8,4.1,2.4c0.5,1,0.8,2.3,0.8,3.9
		c0,1.8-0.4,3.4-1.1,4.8C654.6,293.2,653.3,293.9,651.4,293.9 M633.8,295.8h2.9v-9.9c0-1.2,0.4-2.3,1.2-3.2c0.8-0.9,1.9-1.4,3.4-1.4
		c0.2,0,0.3,0,0.5,0c0.1,0,0.3,0,0.5,0.1v-3c-0.3,0-0.5,0-0.7-0.1c-0.1,0-0.2,0-0.3,0c-1.1,0-2.2,0.4-3,1.2
		c-0.9,0.8-1.4,1.5-1.6,2.1v-3h-2.7V295.8z M626.9,279c0,1.5-0.4,2.6-1.3,3.2c-0.9,0.6-2,0.9-3.5,0.9h-6.3V275h6.3
		c1.2,0,2.2,0.2,2.9,0.5C626.2,276.1,626.9,277.3,626.9,279 M612.6,295.8h3.2v-9.9h7.4c2.3,0,4.1-0.7,5.2-2c1.1-1.4,1.7-3,1.7-4.8
		c0-2.1-0.6-3.8-1.9-5c-1.3-1.2-3-1.8-5-1.8h-10.5V295.8z M211.5,295.8h2.9v-9.9c0-1.2,0.4-2.3,1.2-3.2c0.8-0.9,1.9-1.4,3.3-1.4
		c0.2,0,0.3,0,0.5,0c0.1,0,0.3,0,0.5,0.1v-3c-0.3,0-0.5,0-0.7-0.1c-0.1,0-0.2,0-0.3,0c-1.1,0-2.2,0.4-3,1.2
		c-0.9,0.8-1.4,1.5-1.7,2.1v-3h-2.7V295.8z M195.3,285.8c0.1-1.5,0.5-2.7,1.4-3.6c0.9-1,2-1.4,3.3-1.4c1.8,0,3.1,0.7,3.9,2.1
		c0.4,0.7,0.7,1.7,0.8,3H195.3z M200.2,278.2c-2.4,0-4.3,0.9-5.8,2.6c-1.5,1.7-2.2,3.9-2.2,6.7c0,2.8,0.7,5,2.2,6.5
		c1.5,1.6,3.3,2.3,5.4,2.3c0.9,0,1.6-0.1,2.3-0.3c1.3-0.3,2.4-0.9,3.2-1.7c0.5-0.5,1-1.1,1.4-1.9c0.4-0.8,0.7-1.5,0.7-2.1h-2.8
		c-0.2,0.8-0.6,1.4-1.1,2c-0.9,1-2.1,1.5-3.6,1.5c-1.6,0-2.8-0.5-3.5-1.6c-0.8-1.1-1.2-2.5-1.2-4.2h12.5c0-1.7-0.1-3-0.3-3.8
		c-0.2-1.2-0.6-2.2-1.1-3c-0.6-0.9-1.5-1.6-2.6-2.2C202.6,278.5,201.4,278.2,200.2,278.2 M185.8,275.5h2.9v-3.3h-2.9V275.5z
		 M185.8,295.8h2.9v-17.1h-2.9V295.8z M169.8,285.8c0.1-1.5,0.5-2.7,1.4-3.6c0.9-1,2-1.4,3.3-1.4c1.8,0,3.1,0.7,3.9,2.1
		c0.4,0.7,0.7,1.7,0.8,3H169.8z M174.7,278.2c-2.4,0-4.3,0.9-5.8,2.6c-1.5,1.7-2.2,3.9-2.2,6.7c0,2.8,0.7,5,2.2,6.5
		c1.5,1.6,3.3,2.3,5.4,2.3c0.9,0,1.6-0.1,2.3-0.3c1.3-0.3,2.4-0.9,3.2-1.7c0.5-0.5,1-1.1,1.4-1.9c0.4-0.8,0.7-1.5,0.7-2.1h-2.8
		c-0.2,0.8-0.6,1.4-1.1,2c-0.9,1-2.1,1.5-3.6,1.5c-1.6,0-2.8-0.5-3.5-1.6c-0.8-1.1-1.2-2.5-1.2-4.2h12.5c0-1.7-0.1-3-0.3-3.8
		c-0.2-1.2-0.6-2.2-1.1-3c-0.6-0.9-1.5-1.6-2.6-2.2C177.1,278.5,175.9,278.2,174.7,278.2 M160.6,287.1c0,1.4-0.2,2.6-0.7,3.7
		c-0.8,1.9-2.3,2.8-4.3,2.8c-1.3,0-2.4-0.5-3.1-1.5c-0.8-1-1.2-2.5-1.2-4.4c0-1.6,0.2-3,0.6-4c0.7-1.9,2.1-2.9,4.1-2.9
		c1.3,0,2.5,0.5,3.3,1.5C160.1,283.4,160.6,285,160.6,287.1 M155.4,278.3c-2,0-3.7,0.8-5.1,2.4c-1.4,1.6-2.1,3.9-2.1,6.7
		c0,3,0.7,5.2,2.1,6.5c1.4,1.3,3,2,4.9,2c1.3,0,2.4-0.2,3.2-0.6c0.8-0.4,1.5-1.1,2.1-2c0,2.4-0.2,4-0.6,4.9
		c-0.7,1.6-2.1,2.3-4.3,2.3c-1.4,0-2.4-0.3-3.1-1c-0.4-0.4-0.7-1-0.8-1.8h-2.9c0.2,1.8,0.9,3.1,2.1,3.9c1.3,0.8,2.8,1.2,4.6,1.2
		c3.3,0,5.6-1.2,6.8-3.5c0.6-1.3,1-3,1-5.2v-15.6h-2.7v2.2c-0.6-0.7-1.1-1.3-1.7-1.6C157.9,278.7,156.7,278.3,155.4,278.3
		 M140.8,278.6h-2.3v2.4h2.3v11.4c0,1.1,0.2,2,0.7,2.7c0.5,0.7,1.4,1,2.7,1c0.4,0,0.8,0,1.2-0.1c0.4,0,0.7-0.1,1-0.2v-2.3
		c-0.2,0-0.4,0-0.6,0.1c-0.2,0-0.3,0-0.4,0c-0.5,0-0.9-0.1-1.1-0.2c-0.4-0.2-0.6-0.6-0.6-1.2V281h2.7v-2.4h-2.7v-4.8h-2.9V278.6z
		 M129.4,295.8h2.9v-9.9c0-1.2,0.4-2.3,1.2-3.2c0.8-0.9,1.9-1.4,3.3-1.4c0.2,0,0.3,0,0.5,0c0.1,0,0.3,0,0.5,0.1v-3
		c-0.3,0-0.5,0-0.7-0.1c-0.1,0-0.2,0-0.3,0c-1.1,0-2.2,0.4-3,1.2c-0.9,0.8-1.4,1.5-1.6,2.1v-3h-2.7V295.8z M115.7,286
		c-1.6,0.2-2.9,0.7-3.9,1.6c-1,0.9-1.5,2.1-1.5,3.7c0,1.5,0.5,2.7,1.5,3.6c1,1,2.3,1.5,3.9,1.5c1.3,0,2.5-0.3,3.6-0.8
		c1.1-0.6,1.9-1.2,2.5-2c0.1,0.7,0.3,1.2,0.5,1.6c0.4,0.7,1.2,1.1,2.2,1.1c0.4,0,0.7,0,1,0c0.2,0,0.6-0.1,1-0.2v-2.1
		c-0.2,0-0.4,0.1-0.5,0.1c-0.2,0-0.3,0-0.4,0c-0.4,0-0.7-0.1-0.8-0.3c-0.1-0.2-0.2-0.4-0.2-0.7V283c0-1.6-0.6-2.8-1.9-3.6
		c-1.3-0.8-2.9-1.2-4.9-1.2c-1.7,0-3.3,0.4-4.6,1.2c-1.3,0.8-2,2.3-2.1,4.4h2.7c0.1-0.9,0.3-1.6,0.7-2c0.6-0.8,1.7-1.2,3.2-1.2
		c1.3,0,2.3,0.2,3,0.7c0.7,0.4,1,1.2,1,2.1c0,0.5-0.1,0.9-0.2,1.1c-0.2,0.5-0.7,0.7-1.3,0.8L115.7,286z M113.3,291.2
		c0-1.1,0.4-1.9,1.3-2.4c0.5-0.3,1.3-0.5,2.4-0.7l1.7-0.2c0.5-0.1,1.1-0.2,1.6-0.3c0.6-0.2,1-0.3,1.4-0.6v2.3c0,1.8-0.8,3-2.4,3.8
		c-1,0.5-1.9,0.7-2.9,0.7c-0.8,0-1.6-0.2-2.2-0.7C113.6,292.7,113.3,292.1,113.3,291.2 M89.5,295.8h10c3.1,0,5.4-0.9,6.8-2.8
		c1-1.2,1.4-2.6,1.4-4.1c0-1.8-0.5-3.2-1.6-4.2c-0.6-0.6-1.5-1.1-2.7-1.5c0.8-0.4,1.5-0.9,1.9-1.4c0.8-0.9,1.3-2.2,1.3-3.6
		c0-1.3-0.3-2.4-1-3.4c-1.2-1.6-3.1-2.5-5.9-2.5H89.5V295.8z M92.6,293.1v-8.3H99c1.3,0,2.4,0.2,3.2,0.5c1.5,0.6,2.3,1.8,2.3,3.5
		c0,1-0.3,1.9-0.8,2.6c-0.8,1.1-2.2,1.7-4.2,1.7H92.6z M92.6,282.2v-7.3h5.7c1.4,0,2.5,0.2,3.2,0.5c1.3,0.5,1.9,1.6,1.9,3.1
		c0,1.5-0.6,2.6-1.8,3.2c-0.8,0.4-1.8,0.6-3.2,0.6H92.6z M68.7,278.1c-2.5,0-4.4,0.9-5.9,2.6c-1.5,1.7-2.2,4-2.2,6.9
		c0,2.7,0.7,4.8,2.1,6.4c1.4,1.6,3.2,2.4,5.6,2.4c2.8,0,4.9-0.9,6.2-2.7c1.3-1.8,2-4.1,2-6.8c0-2.9-0.8-5-2.3-6.5
		C72.8,278.9,70.9,278.1,68.7,278.1 M68.6,293.9c-1.7,0-3-0.6-3.8-1.8c-0.8-1.2-1.2-2.7-1.2-4.6c0-1.9,0.4-3.5,1.2-4.9
		c0.8-1.3,2.1-2,3.8-2c2,0,3.3,0.8,4.1,2.4c0.5,1,0.8,2.3,0.8,3.9c0,1.8-0.4,3.4-1.1,4.8C71.8,293.2,70.5,293.9,68.6,293.9
		 M51,295.8h2.9v-9.9c0-1.2,0.4-2.3,1.2-3.2c0.8-0.9,1.9-1.4,3.3-1.4c0.2,0,0.3,0,0.5,0c0.1,0,0.3,0,0.5,0.1v-3
		c-0.3,0-0.5,0-0.7-0.1c-0.1,0-0.2,0-0.3,0c-1.1,0-2.2,0.4-3,1.2c-0.9,0.8-1.4,1.5-1.7,2.1v-3H51V295.8z M44,279
		c0,1.5-0.4,2.6-1.3,3.2c-0.9,0.6-2,0.9-3.5,0.9h-6.3V275h6.3c1.2,0,2.2,0.2,2.9,0.5C43.4,276.1,44,277.3,44,279 M29.7,295.8h3.2
		v-9.9h7.3c2.4,0,4.1-0.7,5.2-2c1.1-1.4,1.7-3,1.7-4.8c0-2.1-0.6-3.8-1.9-5c-1.3-1.2-3-1.8-5-1.8H29.7V295.8z"/>
	<path class="st1" d="M947.3,256h2.9v-9.1c0-2.2,0.5-3.7,1.3-4.6c0.9-0.8,1.9-1.3,3-1.3c1.2,0,2,0.4,2.5,1.2
		c0.3,0.5,0.4,1.4,0.4,2.5V256h2.9v-10c0-1.8,0.4-3,1.2-3.8c0.8-0.8,1.8-1.1,2.9-1.1c0.8,0,1.5,0.2,2.1,0.6c0.6,0.4,0.9,1.2,0.9,2.4
		V256h3v-11.4c0-1.5-0.2-2.7-0.7-3.6c-0.8-1.7-2.4-2.5-4.7-2.5c-1.1,0-2,0.2-2.9,0.7c-0.9,0.4-1.6,1.1-2.3,2
		c-0.4-0.7-0.8-1.3-1.3-1.7c-0.8-0.7-1.9-1-3.3-1c-1.2,0-2.3,0.3-3.2,1c-0.6,0.4-1.2,1-1.9,1.8v-2.4h-2.9V256z M929,238.9v11.7
		c0,1.5,0.2,2.6,0.7,3.5c0.9,1.6,2.5,2.5,4.9,2.5c1.5,0,2.9-0.5,3.9-1.3c0.5-0.4,1-1,1.4-1.6l0,2.5h2.7v-17.1h-2.9v8.4
		c0,1.7-0.2,3-0.6,4c-0.7,1.8-2,2.7-4,2.7c-1.4,0-2.3-0.5-2.8-1.5c-0.3-0.6-0.4-1.3-0.4-2.1v-11.4H929z M921.8,235.8h2.9v-3.3h-2.9
		V235.8z M921.8,256h2.9v-17.1h-2.9V256z M904.1,256h14.4v-2.6H908l10.1-12.2v-2.3h-13.3v2.6h9.4l-10.2,12.3V256z M891.7,246.2
		c-1.6,0.2-2.9,0.7-3.9,1.6c-1,0.9-1.5,2.1-1.5,3.7c0,1.4,0.5,2.7,1.5,3.6c1,1,2.3,1.4,3.9,1.4c1.3,0,2.5-0.3,3.6-0.8
		c1.1-0.6,1.9-1.2,2.5-2c0.1,0.7,0.3,1.2,0.5,1.6c0.5,0.7,1.2,1.1,2.2,1.1c0.4,0,0.7,0,1,0c0.2,0,0.6-0.1,1-0.2V254
		c-0.2,0-0.4,0-0.5,0.1c-0.2,0-0.3,0-0.4,0c-0.4,0-0.7-0.1-0.8-0.3c-0.1-0.2-0.2-0.4-0.2-0.7v-9.9c0-1.6-0.6-2.8-1.9-3.6
		c-1.3-0.8-2.9-1.2-4.9-1.2c-1.7,0-3.3,0.4-4.6,1.2c-1.3,0.8-2,2.3-2.1,4.4h2.7c0.1-0.9,0.3-1.6,0.7-2c0.6-0.8,1.7-1.2,3.2-1.2
		c1.3,0,2.3,0.2,3,0.7c0.7,0.4,1.1,1.2,1.1,2.1c0,0.5-0.1,0.9-0.2,1.1c-0.2,0.5-0.7,0.8-1.3,0.8L891.7,246.2z M889.3,251.5
		c0-1.1,0.4-1.9,1.3-2.4c0.5-0.3,1.3-0.5,2.4-0.7l1.7-0.2c0.5-0.1,1.1-0.2,1.6-0.3c0.6-0.1,1-0.3,1.4-0.6v2.3c0,1.8-0.8,3-2.4,3.8
		c-1,0.5-1.9,0.7-3,0.7c-0.8,0-1.5-0.2-2.2-0.7C889.7,252.9,889.3,252.3,889.3,251.5 M875,238.6c-2.4,0-4.2,0.9-5.4,2.7
		c-1.3,1.8-1.9,4-1.9,6.5c0,2.7,0.7,4.8,2.1,6.4c1.4,1.6,3,2.4,4.9,2.4c1.2,0,2.2-0.2,3.1-0.7c0.9-0.5,1.7-1.2,2.4-2.3v2.4h2.6
		v-23.6h-2.8v8.7c-0.6-0.8-1.2-1.4-1.7-1.7C877.4,238.8,876.3,238.6,875,238.6 M870.7,247.6c0-2.2,0.5-3.8,1.3-4.9
		c0.9-1.1,2.1-1.7,3.5-1.7c1.3,0,2.4,0.5,3.3,1.6c0.9,1,1.3,2.6,1.3,4.8c0,2.1-0.4,3.8-1.3,4.9c-0.9,1.1-1.9,1.7-3.3,1.7
		c-1.7,0-3-0.6-3.7-1.9C871.1,251,870.7,249.5,870.7,247.6 M850.7,256h2.9v-9c0-1.1,0.1-2,0.2-2.6c0.1-0.6,0.5-1.2,0.9-1.7
		c0.6-0.7,1.3-1.2,2.1-1.4c0.4-0.1,1-0.2,1.7-0.2c1.3,0,2.3,0.5,2.8,1.6c0.3,0.6,0.5,1.5,0.5,2.5V256h2.9v-11c0-1.7-0.2-3.1-0.7-4
		c-0.8-1.7-2.5-2.5-4.9-2.5c-1.1,0-2.1,0.2-3,0.7c-0.9,0.4-1.8,1.2-2.6,2.2v-2.4h-2.7V256z M832.3,238.9v11.7c0,1.5,0.2,2.6,0.7,3.5
		c0.9,1.6,2.5,2.5,4.9,2.5c1.5,0,2.9-0.5,3.9-1.3c0.5-0.4,1-1,1.4-1.6l0,2.5h2.7v-17.1h-2.9v8.4c0,1.7-0.2,3-0.6,4
		c-0.7,1.8-2,2.7-4,2.7c-1.4,0-2.3-0.5-2.8-1.5c-0.3-0.6-0.4-1.3-0.4-2.1v-11.4H832.3z M813.1,256h3.2v-10.7h11.6v-2.8h-11.6v-7.1
		h13.1v-2.9h-16.3V256z M767.2,246.1c0.1-1.5,0.5-2.7,1.4-3.6c0.9-1,2-1.4,3.3-1.4c1.8,0,3.1,0.7,3.9,2.1c0.4,0.8,0.7,1.8,0.8,3
		H767.2z M772.1,238.5c-2.4,0-4.3,0.9-5.8,2.6c-1.5,1.7-2.2,4-2.2,6.7c0,2.8,0.7,5,2.2,6.5c1.5,1.6,3.3,2.3,5.4,2.3
		c0.9,0,1.6-0.1,2.3-0.3c1.3-0.3,2.4-0.9,3.2-1.7c0.5-0.5,1-1.1,1.4-1.9c0.4-0.8,0.7-1.5,0.7-2.1h-2.8c-0.2,0.8-0.6,1.4-1.1,2
		c-0.9,1-2.1,1.5-3.6,1.5c-1.6,0-2.8-0.5-3.5-1.6c-0.8-1.1-1.2-2.5-1.2-4.2h12.5c0-1.7-0.1-3-0.2-3.8c-0.2-1.2-0.6-2.2-1.1-3
		c-0.6-0.9-1.5-1.6-2.6-2.2C774.5,238.8,773.4,238.5,772.1,238.5 M746.8,256h2.9v-9c0-1.1,0.1-2,0.2-2.6c0.1-0.6,0.5-1.2,0.9-1.7
		c0.6-0.7,1.3-1.2,2.1-1.4c0.4-0.1,1-0.2,1.7-0.2c1.3,0,2.3,0.5,2.8,1.6c0.3,0.6,0.5,1.5,0.5,2.5V256h2.9v-11c0-1.7-0.2-3.1-0.7-4
		c-0.9-1.7-2.5-2.5-4.9-2.5c-1.1,0-2.1,0.2-3,0.7c-0.9,0.4-1.8,1.2-2.6,2.2v-2.4h-2.7V256z M735.4,238.4c-2.4,0-4.4,0.9-5.9,2.6
		c-1.5,1.7-2.2,4-2.2,6.9c0,2.7,0.7,4.8,2.1,6.4c1.4,1.6,3.2,2.4,5.6,2.4c2.8,0,4.9-0.9,6.2-2.7c1.3-1.8,2-4.1,2-6.8
		c0-2.9-0.8-5-2.3-6.5C739.5,239.1,737.6,238.4,735.4,238.4 M735.3,254.1c-1.7,0-3-0.6-3.8-1.8c-0.8-1.2-1.2-2.7-1.2-4.6
		c0-1.9,0.4-3.5,1.2-4.9c0.8-1.3,2.1-2,3.8-2c2,0,3.3,0.8,4.1,2.4c0.5,1,0.8,2.3,0.8,3.9c0,1.8-0.4,3.4-1.1,4.8
		C738.5,253.4,737.2,254.1,735.3,254.1 M721.3,235.8h2.9v-3.3h-2.9V235.8z M721.3,256h2.9v-17.1h-2.9V256z M703.6,256H718v-2.6
		h-10.4l10.1-12.2v-2.3h-13.3v2.6h9.4l-10.2,12.3V256z M691.3,246.2c-1.6,0.2-2.9,0.7-3.9,1.6c-1,0.9-1.5,2.1-1.5,3.7
		c0,1.4,0.5,2.7,1.5,3.6c1,1,2.3,1.4,3.9,1.4c1.3,0,2.5-0.3,3.6-0.8c1.1-0.6,1.9-1.2,2.5-2c0.1,0.7,0.3,1.2,0.5,1.6
		c0.4,0.7,1.2,1.1,2.2,1.1c0.4,0,0.7,0,1,0c0.2,0,0.6-0.1,1-0.2V254c-0.2,0-0.3,0-0.5,0.1c-0.2,0-0.3,0-0.4,0
		c-0.4,0-0.7-0.1-0.8-0.3c-0.1-0.2-0.2-0.4-0.2-0.7v-9.9c0-1.6-0.6-2.8-1.9-3.6c-1.3-0.8-2.9-1.2-4.9-1.2c-1.7,0-3.3,0.4-4.6,1.2
		c-1.3,0.8-2,2.3-2.1,4.4h2.7c0.1-0.9,0.3-1.6,0.7-2c0.6-0.8,1.7-1.2,3.2-1.2c1.3,0,2.3,0.2,3,0.7c0.7,0.4,1,1.2,1,2.1
		c0,0.5-0.1,0.9-0.2,1.1c-0.2,0.5-0.7,0.8-1.3,0.8L691.3,246.2z M688.9,251.5c0-1.1,0.4-1.9,1.3-2.4c0.5-0.3,1.3-0.5,2.4-0.7
		l1.7-0.2c0.5-0.1,1.1-0.2,1.6-0.3c0.6-0.1,1-0.3,1.4-0.6v2.3c0,1.8-0.8,3-2.4,3.8c-1,0.5-1.9,0.7-2.9,0.7c-0.8,0-1.6-0.2-2.2-0.7
		C689.2,252.9,688.9,252.3,688.9,251.5 M674.5,238.6c-2.4,0-4.2,0.9-5.4,2.7c-1.3,1.8-1.9,4-1.9,6.5c0,2.7,0.7,4.8,2.1,6.4
		c1.4,1.6,3,2.4,4.9,2.4c1.2,0,2.2-0.2,3.1-0.7c0.9-0.5,1.7-1.2,2.4-2.3v2.4h2.6v-23.6h-2.8v8.7c-0.7-0.8-1.2-1.4-1.7-1.7
		C677,238.8,675.9,238.6,674.5,238.6 M670.2,247.6c0-2.2,0.4-3.8,1.3-4.9c0.9-1.1,2.1-1.7,3.5-1.7c1.3,0,2.4,0.5,3.3,1.6
		c0.9,1,1.3,2.6,1.3,4.8c0,2.1-0.4,3.8-1.3,4.9c-0.9,1.1-1.9,1.7-3.3,1.7c-1.7,0-3-0.6-3.7-1.9C670.6,251,670.2,249.5,670.2,247.6
		 M650.2,256h2.9v-9c0-1.1,0.1-2,0.2-2.6c0.1-0.6,0.5-1.2,0.9-1.7c0.6-0.7,1.3-1.2,2.1-1.4c0.4-0.1,1-0.2,1.7-0.2
		c1.3,0,2.3,0.5,2.8,1.6c0.3,0.6,0.5,1.5,0.5,2.5V256h2.9v-11c0-1.7-0.2-3.1-0.7-4c-0.9-1.7-2.5-2.5-4.9-2.5c-1.1,0-2.1,0.2-3,0.7
		c-0.9,0.4-1.8,1.2-2.6,2.2v-2.4h-2.7V256z M638.8,238.4c-2.5,0-4.4,0.9-5.9,2.6c-1.5,1.7-2.2,4-2.2,6.9c0,2.7,0.7,4.8,2.1,6.4
		c1.4,1.6,3.2,2.4,5.6,2.4c2.8,0,4.9-0.9,6.2-2.7c1.3-1.8,2-4.1,2-6.8c0-2.9-0.8-5-2.3-6.5C642.8,239.1,641,238.4,638.8,238.4
		 M638.7,254.1c-1.7,0-3-0.6-3.8-1.8c-0.8-1.2-1.2-2.7-1.2-4.6c0-1.9,0.4-3.5,1.2-4.9c0.8-1.3,2.1-2,3.8-2c2,0,3.3,0.8,4.1,2.4
		c0.5,1,0.8,2.3,0.8,3.9c0,1.8-0.4,3.4-1.1,4.8C641.9,253.4,640.6,254.1,638.7,254.1 M612.6,256h3.2v-10.7h11.5v-2.8h-11.5v-7.1
		h13.1v-2.9h-16.3V256z M133.2,247.4c0,1.4-0.2,2.6-0.7,3.7c-0.8,1.9-2.3,2.8-4.3,2.8c-1.3,0-2.4-0.5-3.1-1.5
		c-0.8-1-1.2-2.5-1.2-4.4c0-1.6,0.2-3,0.6-4c0.7-1.9,2.1-2.8,4.1-2.8c1.3,0,2.5,0.5,3.3,1.5C132.8,243.7,133.2,245.2,133.2,247.4
		 M128.1,238.6c-2,0-3.7,0.8-5.1,2.4c-1.4,1.6-2.1,3.9-2.1,6.7c0,3,0.7,5.2,2.1,6.5c1.4,1.3,3,2,4.9,2c1.3,0,2.4-0.2,3.2-0.6
		c0.8-0.4,1.5-1.1,2.1-1.9c0,2.4-0.2,4-0.6,4.9c-0.7,1.6-2.1,2.3-4.3,2.3c-1.4,0-2.4-0.3-3.1-1c-0.4-0.4-0.7-1-0.8-1.8h-2.9
		c0.2,1.8,0.9,3.1,2.1,3.9c1.3,0.8,2.8,1.2,4.6,1.2c3.3,0,5.6-1.2,6.8-3.5c0.6-1.3,1-3,1-5.2V239h-2.7v2.2c-0.6-0.7-1.1-1.3-1.7-1.6
		C130.6,238.9,129.4,238.6,128.1,238.6 M103.8,256h2.9v-9c0-1.1,0.1-2,0.2-2.6c0.1-0.6,0.5-1.2,0.9-1.7c0.6-0.7,1.3-1.2,2.1-1.4
		c0.4-0.1,1-0.2,1.7-0.2c1.3,0,2.3,0.5,2.8,1.6c0.3,0.6,0.5,1.5,0.5,2.5V256h2.9v-11c0-1.7-0.2-3.1-0.7-4c-0.9-1.7-2.5-2.5-4.9-2.5
		c-1.1,0-2.1,0.2-3,0.7c-0.9,0.4-1.8,1.2-2.6,2.2v-2.4h-2.7V256z M85.5,238.9v11.7c0,1.5,0.2,2.6,0.7,3.5c0.9,1.6,2.5,2.5,4.9,2.5
		c1.5,0,2.8-0.5,3.9-1.3c0.5-0.4,1-1,1.4-1.6l0,2.5h2.7v-17.1h-2.9v8.4c0,1.7-0.2,3-0.6,4c-0.7,1.8-2,2.7-4,2.7
		c-1.4,0-2.3-0.5-2.8-1.5c-0.3-0.6-0.4-1.3-0.4-2.1v-11.4H85.5z M77,238.9h-2.3v2.3H77v11.4c0,1.1,0.2,2,0.7,2.7
		c0.5,0.7,1.4,1,2.7,1c0.4,0,0.8,0,1.2-0.1c0.4,0,0.7-0.1,1-0.2v-2.3c-0.2,0-0.4,0-0.6,0.1c-0.2,0-0.3,0-0.4,0
		c-0.5,0-0.9-0.1-1.1-0.2c-0.4-0.2-0.6-0.6-0.6-1.2v-11.2h2.7v-2.3h-2.7v-4.8H77V238.9z M68.1,236.2v2.7h-2.4v2.3h2.4V256h2.8v-14.8
		h2.9v-2.3h-2.9c0-1.9,0.1-3,0.3-3.5c0.2-0.5,0.7-0.7,1.6-0.7c0.1,0,0.2,0,0.4,0c0.1,0,0.4,0,0.7,0v-2.6c-0.2,0-0.5,0-0.7,0
		c-0.2,0-0.4,0-0.6,0c-1.9,0-3.2,0.5-3.9,1.5C68.3,234.2,68.1,235.1,68.1,236.2 M60,235.8H63v-3.3H60V235.8z M60,256H63v-17.1H60
		V256z M51.5,238.9h-2.3v2.3h2.3v11.4c0,1.1,0.2,2,0.7,2.7c0.5,0.7,1.4,1,2.7,1c0.4,0,0.8,0,1.2-0.1c0.4,0,0.7-0.1,1-0.2v-2.3
		c-0.2,0-0.4,0-0.6,0.1c-0.2,0-0.3,0-0.4,0c-0.5,0-0.9-0.1-1.1-0.2c-0.4-0.2-0.6-0.6-0.6-1.2v-11.2h2.7v-2.3h-2.7v-4.8h-2.9V238.9z
		 M28.5,248.4c0,2.5,0.8,4.5,2.4,6c1.6,1.5,3.8,2.2,6.7,2.2c2.4,0,4.6-0.6,6.4-1.7c1.9-1.1,2.8-3,2.8-5.6c0-2.1-0.7-3.7-2.2-4.8
		c-0.8-0.6-2-1.1-3.6-1.5l-3.2-0.8c-2.2-0.5-3.5-0.9-4.1-1.3c-0.9-0.5-1.4-1.4-1.4-2.5c0-1,0.4-2,1.2-2.8c0.8-0.8,2.1-1.2,3.9-1.2
		c2.2,0,3.8,0.6,4.7,1.8c0.5,0.7,0.8,1.6,1,2.9h3c0-2.6-0.8-4.5-2.5-5.7c-1.7-1.2-3.7-1.8-6.1-1.8c-2.6,0-4.6,0.7-6,2
		c-1.4,1.4-2.1,3.1-2.1,5.2c0,2,0.7,3.4,2.2,4.4c0.8,0.6,2.3,1.1,4.3,1.5l3.1,0.7c1.7,0.4,2.9,0.9,3.7,1.4c0.8,0.6,1.2,1.5,1.2,2.7
		c0,1.7-0.9,2.9-2.7,3.6c-0.9,0.3-2,0.5-3.1,0.5c-2.6,0-4.4-0.8-5.4-2.3c-0.5-0.8-0.8-1.9-0.9-3.2H28.5z"/>
	<path class="st1" d="M980.4,196.4c0.1-1.5,0.5-2.7,1.4-3.6c0.9-1,2-1.4,3.3-1.4c1.8,0,3.1,0.7,3.9,2.1c0.4,0.7,0.7,1.7,0.8,3H980.4
		z M985.3,188.8c-2.4,0-4.3,0.9-5.8,2.6c-1.5,1.7-2.2,4-2.2,6.7c0,2.8,0.7,5,2.2,6.5c1.5,1.5,3.3,2.3,5.4,2.3c0.9,0,1.6-0.1,2.3-0.3
		c1.3-0.3,2.4-0.9,3.2-1.7c0.5-0.5,1-1.1,1.4-1.9c0.4-0.8,0.7-1.5,0.8-2.1h-2.8c-0.2,0.8-0.6,1.4-1.1,2c-0.9,1-2.1,1.5-3.6,1.5
		c-1.6,0-2.8-0.5-3.5-1.6c-0.8-1.1-1.2-2.5-1.2-4.2h12.5c0-1.7-0.1-3-0.3-3.8c-0.2-1.2-0.6-2.2-1.1-3c-0.6-0.9-1.5-1.6-2.6-2.2
		C987.7,189,986.5,188.8,985.3,188.8 M969.7,189.1h-2.3v2.4h2.3v11.4c0,1.1,0.2,2,0.7,2.7c0.5,0.7,1.4,1,2.7,1c0.4,0,0.8,0,1.2-0.1
		c0.4,0,0.7-0.1,1-0.2V204c-0.2,0-0.4,0-0.6,0c-0.2,0-0.3,0-0.5,0c-0.5,0-0.9-0.1-1.1-0.2c-0.4-0.2-0.6-0.6-0.6-1.2v-11.2h2.7v-2.4
		h-2.7v-4.8h-2.9V189.1z M956.9,182.2h-3.6l4.3,4.6h2.2L956.9,182.2z M953.1,196.4c0.1-1.5,0.5-2.7,1.4-3.6c0.9-1,2-1.4,3.3-1.4
		c1.8,0,3.1,0.7,3.9,2.1c0.4,0.7,0.7,1.7,0.8,3H953.1z M958,188.8c-2.4,0-4.3,0.9-5.8,2.6c-1.5,1.7-2.2,4-2.2,6.7
		c0,2.8,0.7,5,2.2,6.5c1.5,1.5,3.3,2.3,5.4,2.3c0.9,0,1.7-0.1,2.3-0.3c1.3-0.3,2.4-0.9,3.2-1.7c0.5-0.5,1-1.1,1.4-1.9
		c0.4-0.8,0.7-1.5,0.7-2.1h-2.8c-0.2,0.8-0.6,1.4-1.1,2c-0.9,1-2.1,1.5-3.6,1.5c-1.6,0-2.8-0.5-3.5-1.6c-0.8-1.1-1.2-2.5-1.2-4.2
		h12.5c0-1.7-0.1-3-0.3-3.8c-0.2-1.2-0.6-2.2-1.1-3c-0.6-0.9-1.5-1.6-2.6-2.2C960.3,189,959.2,188.8,958,188.8 M937.2,196.5
		c-1.6,0.2-2.9,0.7-3.9,1.6c-1,0.9-1.5,2.1-1.5,3.7c0,1.5,0.5,2.7,1.5,3.6c1,1,2.3,1.4,3.9,1.4c1.3,0,2.5-0.3,3.6-0.9
		c1.1-0.6,1.9-1.2,2.5-2c0.1,0.7,0.3,1.2,0.5,1.6c0.4,0.7,1.2,1.1,2.2,1.1c0.4,0,0.7,0,1,0c0.2,0,0.6-0.1,1-0.2v-2.1
		c-0.2,0-0.4,0.1-0.5,0.1c-0.2,0-0.3,0-0.4,0c-0.4,0-0.7-0.1-0.8-0.3c-0.1-0.2-0.2-0.4-0.2-0.7v-9.9c0-1.6-0.6-2.8-1.9-3.6
		c-1.3-0.8-2.9-1.2-4.9-1.2c-1.7,0-3.3,0.4-4.6,1.2c-1.3,0.8-2,2.3-2.1,4.4h2.7c0.1-0.9,0.3-1.6,0.7-2c0.6-0.8,1.7-1.2,3.2-1.2
		c1.3,0,2.3,0.2,3,0.7c0.7,0.4,1,1.2,1,2.1c0,0.5-0.1,0.9-0.2,1.1c-0.2,0.5-0.7,0.7-1.3,0.8L937.2,196.5z M934.9,201.7
		c0-1.1,0.4-1.9,1.3-2.4c0.5-0.3,1.3-0.5,2.4-0.7l1.7-0.2c0.5-0.1,1.1-0.2,1.6-0.3c0.5-0.2,1-0.3,1.4-0.6v2.3c0,1.8-0.8,3-2.4,3.8
		c-1,0.5-1.9,0.7-2.9,0.7c-0.8,0-1.6-0.2-2.2-0.7C935.2,203.2,934.9,202.6,934.9,201.7 M914.2,213.1h2.9v-8.8
		c0.6,0.8,1.2,1.3,1.7,1.6c0.9,0.6,2,0.9,3.3,0.9c1.6,0,3.1-0.5,4.3-1.5c2-1.6,2.9-4.3,2.9-8c0-2.8-0.7-4.9-2-6.4
		c-1.4-1.5-3-2.2-5-2.2c-1.3,0-2.5,0.3-3.4,1c-0.7,0.4-1.3,1-1.9,1.8v-2.3h-2.8V213.1z M921.6,204.4c-2,0-3.4-0.9-4.1-2.7
		c-0.4-0.9-0.6-2.1-0.6-3.4c0-1.6,0.2-3,0.6-4.1c0.7-2,2.1-3,4.1-3c2,0,3.4,0.9,4.1,2.8c0.4,1,0.6,2.2,0.6,3.5
		c0,2.2-0.5,3.9-1.3,5.1C924.1,203.8,923,204.4,921.6,204.4 M904.1,203.1l-4.6-14h-3.3l6.3,17.7c-0.2,0.4-0.4,1-0.7,1.8
		c-0.3,0.8-0.5,1.2-0.6,1.3c-0.2,0.3-0.4,0.5-0.6,0.6c-0.2,0.2-0.6,0.3-1.2,0.3c-0.2,0-0.4,0-0.6,0c-0.2,0-0.6-0.1-1.1-0.3v2.6
		c0.3,0.1,0.6,0.1,0.8,0.2c0.2,0,0.5,0,0.9,0c1.7,0,2.8-0.5,3.5-1.4c0.7-1,1.9-3.6,3.5-8c0.7-1.9,1.6-4.3,2.6-7.2
		c1.4-3.9,2.3-6.4,2.7-7.5h-3.2L904.1,203.1z M882.9,182.2c-3.2,0-5.8,1.1-7.8,3.3c-2.1,2.3-3.2,5.5-3.2,9.4c0,3.9,1.1,7.1,3.2,9.3
		c2,1.8,4.3,2.7,7.1,2.7c2.1,0,3.9-0.4,5.2-1.2c0.8-0.5,1.8-1.3,2.8-2.5l0.8,3h2v-12.6h-10.3v2.6h7.4c0,2.8-0.7,4.8-2.1,6
		c-1.4,1.2-3.1,1.8-5.2,1.8c-2.7,0-4.7-0.9-5.9-2.6c-1.2-1.8-1.8-4-1.8-6.8c0-3.2,0.7-5.7,2.2-7.3c1.5-1.6,3.3-2.5,5.4-2.5
		c1.8,0,3.3,0.4,4.5,1.2c1.2,0.8,2,2,2.3,3.8h3.1c-0.5-3.1-1.9-5.2-4.2-6.5C886.9,182.6,885.1,182.2,882.9,182.2 M852,188.7
		c-2.5,0-4.4,0.9-5.9,2.6c-1.5,1.7-2.2,4-2.2,6.9c0,2.7,0.7,4.8,2.1,6.4c1.4,1.6,3.2,2.4,5.6,2.4c2.8,0,4.9-0.9,6.2-2.7
		c1.3-1.8,2-4.1,2-6.9c0-2.9-0.8-5-2.3-6.5C856,189.4,854.2,188.7,852,188.7 M851.9,204.4c-1.7,0-3-0.6-3.8-1.8
		c-0.8-1.2-1.2-2.7-1.2-4.6c0-1.9,0.4-3.5,1.2-4.9c0.8-1.3,2.1-2,3.8-2c2,0,3.3,0.8,4.1,2.4c0.5,1,0.8,2.3,0.8,3.9
		c0,1.8-0.4,3.4-1.1,4.8C855.1,203.7,853.8,204.4,851.9,204.4 M834.3,206.3h2.9v-9.9c0-1.2,0.4-2.3,1.2-3.2c0.8-0.9,1.9-1.4,3.3-1.4
		c0.2,0,0.3,0,0.5,0c0.1,0,0.3,0,0.5,0.1v-3c-0.3,0-0.5-0.1-0.7-0.1c-0.1,0-0.2,0-0.3,0c-1.1,0-2.2,0.4-3,1.2
		c-0.9,0.8-1.4,1.5-1.6,2.1v-3h-2.7V206.3z M827.3,189.5c0,1.5-0.4,2.6-1.3,3.2c-0.9,0.6-2,0.9-3.5,0.9h-6.3v-8.2h6.3
		c1.2,0,2.2,0.2,2.9,0.5C826.6,186.6,827.3,187.8,827.3,189.5 M813,206.3h3.2v-9.9h7.3c2.4,0,4.1-0.7,5.2-2c1.1-1.4,1.7-3,1.7-4.8
		c0-2.1-0.6-3.8-1.9-5c-1.3-1.2-3-1.8-5-1.8H813V206.3z"/>
	<path class="st1" d="M940,166.5h2.9v-9c0-1.1,0.1-2,0.2-2.6c0.1-0.6,0.5-1.2,0.9-1.8c0.6-0.7,1.3-1.2,2.1-1.4
		c0.4-0.1,1-0.2,1.7-0.2c1.3,0,2.3,0.5,2.8,1.6c0.3,0.6,0.5,1.5,0.5,2.5v10.8h2.9v-11c0-1.7-0.2-3.1-0.7-4c-0.9-1.7-2.5-2.5-4.9-2.5
		c-1.1,0-2.1,0.2-3,0.7c-0.9,0.4-1.8,1.2-2.6,2.2v-2.4H940V166.5z M928.6,148.9c-2.4,0-4.4,0.9-5.8,2.6c-1.5,1.7-2.2,4-2.2,6.9
		c0,2.7,0.7,4.8,2.1,6.4c1.4,1.6,3.2,2.4,5.6,2.4c2.8,0,4.9-0.9,6.2-2.7c1.3-1.8,2-4.1,2-6.9c0-2.9-0.8-5-2.3-6.5
		C932.6,149.6,930.8,148.9,928.6,148.9 M928.5,164.7c-1.7,0-3-0.6-3.8-1.8c-0.8-1.2-1.2-2.7-1.2-4.6c0-1.9,0.4-3.5,1.2-4.9
		c0.8-1.3,2.1-2,3.8-2c2,0,3.3,0.8,4.1,2.4c0.5,1,0.8,2.3,0.8,3.9c0,1.8-0.4,3.4-1.1,4.8C931.7,163.9,930.4,164.7,928.5,164.7
		 M914.4,146.3h2.9V143h-2.9V146.3z M914.4,166.5h2.9v-17.1h-2.9V166.5z M905.9,149.4h-2.3v2.4h2.3v11.4c0,1.1,0.2,2,0.7,2.7
		c0.5,0.7,1.4,1,2.7,1c0.4,0,0.8,0,1.2-0.1c0.4,0,0.7-0.1,1-0.2v-2.3c-0.2,0-0.4,0-0.6,0.1c-0.2,0-0.3,0-0.4,0
		c-0.5,0-0.9-0.1-1.1-0.2c-0.4-0.2-0.6-0.6-0.6-1.2v-11.2h2.7v-2.4h-2.7v-4.8h-2.9V149.4z M891.7,156.7c-1.6,0.2-2.9,0.7-3.9,1.6
		c-1,0.9-1.5,2.1-1.5,3.7c0,1.5,0.5,2.7,1.5,3.6c1,1,2.3,1.4,3.9,1.4c1.3,0,2.5-0.3,3.6-0.8c1.1-0.6,1.9-1.2,2.5-2
		c0.1,0.7,0.3,1.2,0.5,1.6c0.5,0.7,1.2,1.1,2.2,1.1c0.4,0,0.7,0,1-0.1c0.2,0,0.6-0.1,1-0.2v-2.1c-0.2,0-0.4,0.1-0.5,0.1
		c-0.2,0-0.3,0-0.4,0c-0.4,0-0.7-0.1-0.8-0.3c-0.1-0.2-0.2-0.4-0.2-0.7v-9.9c0-1.6-0.6-2.8-1.9-3.6c-1.3-0.8-2.9-1.2-4.9-1.2
		c-1.7,0-3.3,0.4-4.6,1.2c-1.3,0.8-2,2.3-2.1,4.4h2.7c0.1-0.9,0.3-1.6,0.7-2c0.6-0.8,1.7-1.2,3.2-1.2c1.3,0,2.3,0.2,3,0.7
		c0.7,0.4,1.1,1.2,1.1,2.1c0,0.5-0.1,0.9-0.2,1.1c-0.2,0.5-0.7,0.7-1.3,0.8L891.7,156.7z M889.3,162c0-1.1,0.5-1.9,1.3-2.4
		c0.5-0.3,1.3-0.5,2.4-0.7l1.7-0.2c0.5-0.1,1.1-0.2,1.6-0.3c0.6-0.1,1-0.3,1.4-0.6v2.3c0,1.8-0.8,3-2.4,3.8c-1,0.5-1.9,0.7-3,0.7
		c-0.8,0-1.5-0.2-2.2-0.7C889.6,163.5,889.3,162.8,889.3,162 M875,149.1c-2.4,0-4.2,0.9-5.4,2.7c-1.3,1.8-1.9,4-1.9,6.5
		c0,2.7,0.7,4.8,2.1,6.4c1.4,1.6,3,2.4,4.9,2.4c1.2,0,2.2-0.2,3.1-0.7c0.9-0.5,1.7-1.2,2.4-2.3v2.4h2.6v-23.6H880v8.7
		c-0.6-0.8-1.2-1.4-1.7-1.7C877.4,149.4,876.3,149.1,875,149.1 M870.7,158.2c0-2.2,0.4-3.8,1.3-4.9c0.9-1.1,2.1-1.7,3.5-1.7
		c1.3,0,2.4,0.5,3.3,1.6c0.9,1,1.3,2.6,1.3,4.8c0,2.1-0.4,3.8-1.3,4.9c-0.8,1.1-1.9,1.7-3.3,1.7c-1.7,0-3-0.6-3.7-1.9
		C871.1,161.5,870.7,160,870.7,158.2 M850.6,166.5h2.9v-9c0-1.1,0.1-2,0.2-2.6c0.1-0.6,0.5-1.2,0.9-1.8c0.6-0.7,1.3-1.2,2.1-1.4
		c0.4-0.1,1-0.2,1.7-0.2c1.3,0,2.3,0.5,2.8,1.6c0.3,0.6,0.5,1.5,0.5,2.5v10.8h2.9v-11c0-1.7-0.2-3.1-0.7-4c-0.9-1.7-2.5-2.5-4.9-2.5
		c-1.1,0-2.1,0.2-3,0.7c-0.9,0.4-1.8,1.2-2.6,2.2v-2.4h-2.7V166.5z M839.2,148.9c-2.4,0-4.4,0.9-5.9,2.6c-1.5,1.7-2.2,4-2.2,6.9
		c0,2.7,0.7,4.8,2.1,6.4c1.4,1.6,3.2,2.4,5.6,2.4c2.8,0,4.9-0.9,6.2-2.7c1.3-1.8,2-4.1,2-6.9c0-2.9-0.8-5-2.3-6.5
		C843.3,149.6,841.4,148.9,839.2,148.9 M839.1,164.7c-1.7,0-3-0.6-3.8-1.8c-0.8-1.2-1.2-2.7-1.2-4.6c0-1.9,0.4-3.5,1.2-4.9
		c0.8-1.3,2.1-2,3.8-2c2,0,3.3,0.8,4.1,2.4c0.5,1,0.8,2.3,0.8,3.9c0,1.8-0.3,3.4-1.1,4.8C842.3,163.9,841,164.7,839.1,164.7
		 M813,166.5h3.2v-10.7h11.6V153h-11.6v-7.1h13.1V143H813V166.5z"/>
</g>
</svg>
