<?xml version="1.0" standalone="no"?>
<!DOCTYPE svg PUBLIC "-//W3C//DTD SVG 20010904//EN"
 "http://www.w3.org/TR/2001/REC-SVG-20010904/DTD/svg10.dtd">
<svg version="1.0" xmlns="http://www.w3.org/2000/svg"
 width="260.000000pt" height="260.000000pt" viewBox="0 0 260.000000 260.000000"
 preserveAspectRatio="xMidYMid meet">
<metadata>
Created by potrace 1.11, written by Peter Selinger 2001-2013
</metadata>
<g transform="translate(0.000000,260.000000) scale(0.100000,-0.100000)"
fill="#000000" stroke="none">
<path d="M1257 2064 c-1 -1 -33 -4 -71 -8 -38 -4 -72 -8 -76 -11 -9 -5 -52
-14 -130 -26 -36 -5 -81 -11 -100 -14 -19 -3 -39 -11 -45 -17 -7 -7 -7 -9 0
-5 6 3 17 2 24 -2 8 -5 -8 -14 -43 -25 -31 -10 -56 -22 -56 -26 0 -4 9 -6 20
-3 11 3 32 2 46 -1 25 -7 20 -11 -54 -48 -45 -22 -79 -44 -76 -49 3 -5 -6 -14
-20 -21 -14 -6 -26 -15 -26 -20 0 -5 6 -6 13 -2 10 6 10 4 0 -7 -15 -15 -17
-29 -4 -29 5 0 22 20 38 45 15 25 33 44 38 42 6 -1 13 3 15 8 3 6 25 21 49 34
35 18 49 21 62 13 13 -8 20 -8 29 3 6 7 24 12 43 10 30 -4 29 -3 -8 10 -22 7
-52 14 -67 14 -31 1 -49 21 -19 21 11 0 23 5 26 10 3 6 17 10 31 10 15 0 23 4
19 11 -4 6 -14 8 -24 4 -12 -5 -13 -3 -5 5 19 19 160 22 203 5 l36 -15 -23 20
-24 20 29 12 c17 7 84 12 168 12 138 1 141 1 186 -28 46 -29 77 -69 91 -113 7
-26 -4 -30 -22 -8 -7 8 -17 15 -23 15 -6 0 0 -12 14 -26 l24 -26 -23 7 c-23 7
-23 6 -8 -17 15 -23 14 -26 -26 -73 -53 -64 -81 -127 -73 -164 5 -23 3 -27
-12 -26 -10 0 -24 5 -32 9 -8 5 -16 4 -21 -4 -6 -9 -20 -5 -55 16 -45 26 -48
26 -43 7 5 -20 4 -20 -56 -7 -33 7 -83 20 -111 28 -27 8 -51 14 -53 11 -6 -6
42 -34 68 -38 85 -16 140 -35 140 -48 0 -14 28 -11 33 4 3 6 6 2 6 -10 1 -26
-17 -29 -45 -8 -32 24 -47 19 -28 -10 9 -14 22 -24 28 -22 6 2 24 -2 39 -10
26 -13 29 -13 48 12 12 14 24 23 29 20 9 -6 40 -97 40 -121 0 -16 -1 -16 -20
1 -24 22 -26 8 -4 -23 14 -21 52 -33 39 -12 -3 6 -1 10 4 10 6 0 11 -5 11 -11
0 -5 14 -15 31 -21 23 -8 27 -13 17 -19 -9 -6 -7 -9 10 -9 13 0 36 -7 52 -15
26 -14 29 -14 24 0 -5 13 -1 15 24 10 17 -3 33 -1 36 4 3 5 -13 9 -37 9 -23 0
-53 0 -66 1 -23 1 -24 2 -6 14 10 8 15 19 12 24 -4 6 0 14 9 17 13 5 14 9 4
21 -11 13 -10 14 3 9 9 -3 19 -14 22 -24 3 -10 17 -20 30 -23 28 -5 31 2 13
22 -9 10 -9 12 -1 7 6 -3 14 -2 18 4 3 6 -1 13 -9 16 -12 5 -13 10 -5 25 10
20 39 26 39 9 0 -5 -7 -7 -15 -4 -21 9 -19 -10 6 -37 14 -16 22 -20 25 -12 4
9 11 10 23 3 10 -5 33 -12 52 -15 66 -11 99 -26 99 -45 0 -10 6 -31 14 -47 21
-43 39 -104 31 -111 -6 -6 -20 10 -28 33 -3 6 -8 7 -12 3 -4 -4 -2 -14 5 -23
7 -9 8 -15 2 -15 -5 0 -19 15 -31 33 l-21 32 0 -30 c-1 -29 -1 -29 -15 -10
-16 20 -83 35 -70 16 3 -7 0 -8 -9 -5 -11 4 -16 0 -16 -11 0 -9 -4 -14 -10
-10 -5 3 -7 12 -4 19 3 8 0 17 -7 22 -9 5 -11 -2 -6 -29 4 -29 2 -37 -10 -37
-12 0 -14 8 -11 35 5 40 2 42 -20 17 -10 -10 -13 -12 -9 -6 17 25 -131 50
-155 26 -10 -10 43 -26 76 -22 10 1 15 -3 12 -8 -3 -6 1 -13 10 -16 12 -4 13
-10 6 -19 -8 -9 0 -12 33 -14 51 -2 111 -38 150 -88 31 -41 31 -45 3 -37 -15
4 -19 2 -14 -7 5 -8 2 -11 -9 -9 -25 4 -30 -18 -5 -25 11 -3 20 -11 21 -19 0
-7 19 -26 41 -43 23 -16 44 -37 46 -45 4 -11 0 -10 -13 3 -26 26 -31 12 -5
-15 25 -26 44 -58 34 -58 -3 0 -17 9 -31 20 -40 31 -50 23 -17 -13 72 -76 96
-124 46 -88 -16 11 -41 23 -56 27 l-27 7 25 -28 c14 -15 26 -31 26 -36 0 -4
11 -21 25 -37 23 -28 23 -30 5 -25 -11 3 -20 0 -20 -6 0 -5 -7 -8 -15 -5 -41
16 16 -69 61 -91 20 -9 38 -15 40 -12 2 2 -6 19 -19 38 -41 61 -42 62 -20 50
11 -6 23 -8 26 -5 5 6 -1 14 -55 77 -32 37 -23 45 22 22 18 -9 34 -14 37 -12
2 3 -7 24 -21 46 -25 39 -24 55 2 29 9 -9 12 -8 12 4 0 9 -4 20 -10 23 -5 3
-10 20 -10 38 0 26 -11 42 -62 89 l-62 57 29 27 29 27 -30 23 c-16 13 -28 31
-26 39 2 8 -4 15 -11 15 -16 0 -34 18 -39 39 -2 9 7 15 24 16 15 1 25 -2 21
-8 -3 -6 10 -7 36 -2 43 7 53 -3 26 -25 -8 -7 -15 -20 -14 -29 0 -12 4 -11 16
6 17 26 35 31 27 8 -10 -26 34 -17 52 10 13 20 20 23 30 14 29 -24 27 -111 -3
-209 -4 -13 -4 -13 6 0 9 13 11 12 11 -5 0 -17 2 -18 11 -5 9 12 10 10 6 -8
-4 -18 -3 -21 8 -12 11 9 110 153 140 204 9 15 14 15 70 -4 33 -12 70 -28 83
-36 21 -14 22 -16 6 -45 -35 -69 30 -34 73 38 24 41 28 59 28 123 0 70 -2 78
-35 121 -46 61 -83 86 -150 100 -61 13 -91 40 -231 205 -38 45 -84 93 -102
107 -17 14 -52 43 -77 66 -24 23 -73 56 -107 73 -45 22 -73 44 -98 78 -58 79
-103 103 -202 110 -46 3 -85 5 -86 4z m373 -204 c50 -25 136 -96 214 -174 67
-68 252 -267 285 -306 14 -18 20 -21 21 -9 0 8 -5 20 -12 27 -9 9 -8 12 4 12
35 0 66 -20 76 -49 10 -28 9 -30 -8 -19 -10 7 -23 21 -29 33 -9 18 -10 18 -10
2 -1 -10 24 -44 55 -75 30 -32 51 -48 46 -37 -6 11 -8 32 -5 46 4 20 -2 31
-23 48 -15 12 -24 24 -21 27 9 9 88 -75 103 -112 16 -38 19 -124 4 -124 -5 0
-10 6 -10 13 0 8 -9 22 -20 32 -20 18 -20 17 -20 -14 0 -19 -4 -30 -10 -26 -6
4 -8 11 -5 16 4 5 2 9 -4 9 -5 0 -13 -4 -16 -10 -6 -10 -103 51 -117 73 -4 7
-8 27 -8 45 0 18 -9 51 -20 72 -19 38 -143 170 -159 170 -13 0 -75 62 -109
110 -37 52 -72 82 -162 134 -111 66 -109 64 -103 86 7 25 14 25 63 0z m-95
-160 c-3 -5 -12 -10 -20 -10 -7 0 -16 -7 -19 -16 -12 -30 -6 -55 20 -80 21
-22 31 -25 62 -20 20 4 45 16 55 28 9 11 17 16 17 10 0 -35 -74 -61 -120 -42
-53 22 -65 110 -17 130 29 12 29 12 22 0z m17 -36 c-28 -19 -28 -41 -1 -49 14
-5 28 0 45 16 18 16 24 19 24 8 0 -24 -22 -39 -55 -39 -51 0 -76 47 -37 69 28
17 49 13 24 -5z m-146 -125 c20 -22 23 -28 8 -19 -18 11 -50 50 -41 50 2 0 16
-14 33 -31z m55 -16 c13 -17 13 -17 -6 -3 -11 8 -22 16 -24 17 -2 2 0 3 6 3 6
0 17 -8 24 -17z m72 -22 c4 0 13 -1 20 -1 8 0 8 -3 -2 -9 -12 -7 -12 -13 -3
-24 16 -19 4 -28 -26 -20 -17 4 -23 2 -18 -6 4 -6 1 -11 -7 -11 -25 0 -27 -39
-4 -55 27 -19 16 -19 -27 -1 -33 14 -66 50 -66 72 0 20 32 25 56 9 23 -15 33
-13 74 13 2 2 -9 14 -25 27 -28 24 -29 25 -5 16 14 -5 28 -9 33 -10z m507
-237 c0 -2 -9 0 -20 6 -11 6 -20 13 -20 16 0 2 9 0 20 -6 11 -6 20 -13 20 -16z
m112 -65 c57 -29 97 -62 98 -83 0 -4 -11 -1 -24 8 -14 9 -31 13 -39 10 -19 -7
-78 18 -123 53 -37 27 -37 28 -13 34 13 4 28 7 32 8 4 1 35 -13 69 -30z m-532
-9 c0 -5 -4 -10 -10 -10 -5 0 -10 5 -10 10 0 6 5 10 10 10 6 0 10 -4 10 -10z"/>
<path d="M2208 1285 c6 -11 18 -29 27 -40 15 -20 16 -20 13 4 -2 13 -14 31
-27 40 -23 15 -24 15 -13 -4z"/>
<path d="M1420 1451 c0 -13 26 -32 33 -24 8 7 -11 33 -24 33 -5 0 -9 -4 -9 -9z"/>
<path d="M830 1880 c-12 -8 -11 -10 8 -10 12 0 22 5 22 10 0 13 -11 13 -30 0z"/>
<path d="M640 1734 c-52 -29 -88 -64 -119 -116 -18 -30 -19 -37 -7 -32 10 4
16 1 16 -8 0 -18 -51 -98 -78 -122 -33 -29 -26 -38 15 -21 20 8 38 13 41 10 3
-3 1 -5 -5 -5 -5 0 -15 -12 -21 -26 -9 -19 -42 -39 -124 -78 l-112 -52 38 -23
c29 -18 34 -26 25 -37 -9 -11 -6 -20 14 -43 14 -17 37 -62 52 -100 l28 -71 40
0 c52 0 98 -23 119 -60 9 -17 23 -30 31 -30 19 0 51 -36 77 -88 16 -29 28 -42
40 -40 22 4 134 -104 151 -144 11 -26 52 -48 66 -35 3 3 -2 34 -11 68 -8 35
-14 65 -12 67 8 7 24 -33 35 -88 17 -83 20 -86 77 -70 27 8 61 13 76 12 22 -2
31 4 44 30 26 50 29 126 6 171 -19 36 -19 37 -1 37 25 0 39 -31 44 -97 2 -39
-1 -61 -11 -70 -16 -17 -29 -61 -20 -70 3 -3 12 -1 19 5 8 7 17 9 21 5 3 -4
12 -8 19 -9 7 -1 17 -3 22 -4 26 -6 37 3 55 45 21 49 30 54 54 29 21 -21 20
-31 -4 -44 -28 -15 -25 -28 8 -36 15 -4 32 -10 38 -15 5 -4 20 -5 33 -2 21 5
23 10 19 55 l-5 48 34 -6 33 -6 -5 38 c-3 22 -8 51 -11 67 -6 28 8 37 23 15
14 -23 12 -127 -3 -139 -8 -6 -14 -19 -14 -29 0 -13 6 -16 25 -12 23 4 25 9
25 58 0 41 5 59 20 74 12 12 25 18 30 15 17 -10 -10 59 -31 80 l-20 20 7 -39
c5 -28 4 -37 -5 -32 -6 4 -11 13 -11 21 0 23 -50 75 -66 68 -19 -7 -44 15 -44
39 0 14 -5 18 -15 14 -9 -3 -18 1 -21 9 -4 8 -17 15 -30 15 -13 0 -24 6 -24
13 0 7 -10 13 -22 14 -31 3 -80 57 -65 72 6 6 9 11 7 12 -55 9 -70 16 -70 32
0 14 -106 60 -136 60 -14 0 -16 4 -18 30 -1 6 -5 16 -11 20 -6 6 -6 10 3 14
24 9 12 22 -13 13 -28 -11 -63 0 -103 30 -15 12 -40 20 -65 20 -22 0 -37 3
-34 7 4 3 2 12 -3 18 -7 8 -4 18 10 30 34 31 24 37 -57 29 -71 -6 -76 -5 -64
10 11 13 11 17 -4 22 -13 5 -14 9 -4 15 33 20 -7 20 -66 0 -58 -20 -67 -21
-80 -7 -20 20 -19 26 4 26 11 0 23 5 27 12 5 8 0 9 -14 6 -12 -4 -22 -3 -22 2
0 8 61 40 77 40 5 0 18 7 29 15 17 13 14 13 -26 1 -25 -8 -67 -24 -93 -36 -62
-28 -68 -22 -15 13 23 15 36 27 28 27 -9 0 -8 5 5 20 10 11 15 23 12 27 -4 3
-2 13 5 20 9 11 9 16 0 22 -19 12 18 75 61 102 21 13 57 32 80 41 33 13 37 17
17 17 -14 0 -45 -12 -70 -25z m-195 -414 c-3 -5 -12 -10 -18 -10 -7 0 -6 4 3
10 19 12 23 12 15 0z m75 -39 c0 -5 -10 -11 -22 -14 -22 -6 -22 -6 -4 8 23 17
26 18 26 6z m100 -5 c0 -8 -7 -17 -16 -20 -13 -5 -14 -4 -6 7 7 8 9 17 5 20
-3 4 -1 7 5 7 7 0 12 -6 12 -14z m91 -20 c-6 -8 -22 -16 -34 -19 -22 -6 -22
-6 2 14 27 22 49 26 32 5z m-231 -56 c-15 -10 -60 -14 -60 -5 0 6 64 23 70 18
2 -2 -2 -8 -10 -13z m314 -17 c-10 -7 -29 -13 -43 -13 -26 1 -26 1 4 14 41 17
63 17 39 -1z m60 -28 c-4 -8 -13 -15 -22 -15 -13 0 -12 3 4 15 24 18 25 18 18
0z m-299 -25 c-16 -16 -34 -30 -39 -30 -6 0 4 14 23 30 44 39 53 39 16 0z
m215 5 c0 -2 -21 -14 -47 -26 -27 -12 -57 -26 -68 -31 -18 -9 -19 -9 -5 5 27
29 120 69 120 52z m170 -9 c-14 -8 -29 -12 -34 -8 -10 6 20 20 44 21 8 0 4 -6
-10 -13z m-140 -26 c-8 -5 -22 -10 -30 -10 -13 0 -13 1 0 10 8 5 22 10 30 10
13 0 13 -1 0 -10z m70 0 c0 -5 -10 -10 -22 -10 -19 0 -20 2 -8 10 19 13 30 13
30 0z m133 -38 c-12 -9 -40 -30 -63 -46 -42 -28 -70 -76 -70 -116 0 -11 6 -20
14 -20 13 0 31 -29 23 -37 -3 -2 -15 1 -28 7 -22 10 -24 17 -24 75 0 60 1 64
25 69 23 4 57 31 86 68 6 7 21 14 35 15 l24 2 -22 -17z m-293 -7 c0 -8 -71
-38 -76 -32 -3 3 7 12 23 20 28 15 53 21 53 12z m145 -5 c-3 -5 -14 -10 -23
-9 -14 0 -13 2 3 9 27 11 27 11 20 0z m176 -47 c0 -5 2 -17 4 -28 4 -20 4 -20
-11 -1 -8 11 -14 23 -14 28 0 10 20 11 21 1z m40 -29 c-9 -28 -9 -29 -10 -3
-1 14 2 29 6 32 11 12 13 2 4 -29z m-331 18 c0 -4 -15 -16 -32 -26 l-33 -18
28 26 c30 27 37 31 37 18z m184 -54 c-10 -18 -19 -28 -21 -21 -5 15 15 53 28
53 5 0 2 -15 -7 -32z m216 10 c0 -12 -3 -18 -7 -14 -11 10 -12 36 -2 36 5 0 9
-10 9 -22z m70 -14 c0 -14 6 -24 14 -24 15 0 39 -32 50 -67 4 -14 3 -23 -3
-23 -6 0 -15 17 -21 39 -7 27 -17 41 -32 44 -30 8 -34 2 -14 -27 18 -29 21
-56 6 -56 -6 0 -10 8 -8 17 2 11 -8 22 -24 31 -33 16 -34 22 -8 55 11 14 20
30 20 37 0 6 5 8 10 5 6 -3 10 -17 10 -31z m-145 -12 c-1 -10 2 -27 6 -39 14
-38 -10 -27 -27 12 -19 45 -18 54 5 48 11 -3 18 -12 16 -21z m-295 0 c0 -10
-7 -27 -15 -38 -16 -21 -20 -8 -9 34 8 26 24 29 24 4z m607 -28 c13 -8 30 -25
39 -38 14 -22 14 -27 0 -48 -13 -19 -20 -59 -25 -135 -1 -7 -6 -13 -12 -13 -8
0 -9 20 -4 64 6 59 5 66 -14 76 -12 6 -21 17 -21 24 0 8 -16 26 -36 41 -34 26
-35 29 -20 41 20 14 61 9 93 -12z m-338 -68 c12 -35 11 -40 -8 -59 -23 -23
-28 -10 -10 24 8 16 7 25 -5 38 -13 14 -13 20 -3 30 9 10 2 12 -35 10 -26 -2
-51 0 -54 4 -4 4 7 7 24 7 17 0 34 5 38 11 9 16 37 -18 53 -65z m89 54 c15
-24 0 -27 -22 -4 -19 19 -20 24 -3 24 7 0 18 -9 25 -20z m-318 -31 c-42 -12
-57 -9 -25 5 17 7 34 11 40 8 5 -4 -1 -9 -15 -13z m674 -5 c15 -40 -4 -48 -22
-9 -9 20 -9 25 2 25 8 0 17 -7 20 -16z m-714 -48 c0 -6 -7 -2 -15 8 -8 11 -15
25 -15 30 0 6 7 2 15 -8 8 -11 15 -25 15 -30z m109 -27 c15 -43 -7 -47 -25 -4
-10 25 -20 35 -30 31 -17 -7 -18 6 -2 22 15 15 43 -8 57 -49z m81 -31 c0 -14
-18 -9 -24 8 -11 28 -6 39 9 20 8 -11 15 -23 15 -28z m42 -27 c2 -20 -2 -36
-9 -38 -9 -3 -13 9 -13 43 0 54 17 50 22 -5z"/>
<path d="M1336 892 c-7 -12 13 -72 24 -72 5 0 12 5 15 10 4 6 11 7 17 4 16
-10 -7 29 -30 49 -11 10 -23 14 -26 9z"/>
<path d="M1503 878 c2 -7 16 -13 31 -13 33 0 100 -57 115 -99 15 -39 14 -79
-4 -102 -15 -18 -16 -16 -12 21 2 22 0 49 -4 60 -7 18 -8 18 -8 -4 -1 -19 -4
-21 -15 -12 -10 9 -17 6 -30 -13 -9 -14 -16 -28 -16 -31 0 -11 29 -5 33 8 4 9
6 9 6 -1 1 -7 -5 -23 -13 -35 -21 -33 -24 -71 -5 -75 24 -5 99 55 100 81 0 12
3 31 5 42 8 30 7 36 -10 85 -8 25 -15 37 -15 28 -1 -27 -20 -22 -27 7 -4 16
-12 24 -23 23 -9 -2 -20 7 -26 20 -10 22 -35 31 -35 12 0 -7 -6 -7 -19 0 -26
13 -34 13 -28 -2z"/>
<path d="M1700 721 c0 -5 7 -14 15 -21 13 -11 12 -15 -5 -37 -38 -48 -17 -93
29 -64 18 11 10 94 -12 115 -17 18 -27 20 -27 7z"/>
<path d="M1760 612 c0 -27 10 -52 21 -52 15 0 10 47 -6 60 -12 10 -15 9 -15
-8z"/>
</g>
</svg>
