<svg id="Layer_1" data-name="Layer 1" xmlns="http://www.w3.org/2000/svg" viewBox="0 0 97.182 85.431"><defs><style>.cls-1{fill:#ae9977}</style></defs><title>Bartgeier_Gold</title><path class="cls-1" d="M15.455 6.52a3.544 3.544 0 0 1-.51-.158 59.327 59.327 0 0 0-8.347-3.19c-1.45-.445-2.92-.818-4.378-1.232a1.614 1.614 0 0 0-1.93.488 11.27 11.27 0 0 0 1.36 1.17c1.957 1.22 4.194 1.82 6.28 2.754.9.4 1.808.8 2.72 1.18 1.39.575 2.79 1.12 4.177 1.7a2.627 2.627 0 0 1 .732.506 1.15 1.15 0 0 1 .17.445 1.223 1.223 0 0 1-.42.093q-2.88-.437-5.75-.9a35.334 35.334 0 0 0-6.69-.886 4.7 4.7 0 0 0-2.6.77c-.33.22-.4.353-.07.674a4.276 4.276 0 0 0 3.06 1.16 7.13 7.13 0 0 1 1.45.442c1.37.367 2.76.72 4.14 1.067.45.116.91.2 1.37.3l-.01.255a4.768 4.768 0 0 1-.66.09c-1.6 0-3.21-.048-4.813 0a5.952 5.952 0 0 0-3.16.713c-.67.43-.69.96.04 1.29a12.81 12.81 0 0 0 2.137.68c.594.15 1.2.23 1.81.33.43.07.87.08 1.295.16a5.98 5.98 0 0 1 .85.3l-.02.17a2.46 2.46 0 0 1-.35.108c-.716.106-1.435.19-2.147.31-.8.137-1.44.74-1.246 1.277a2.96 2.96 0 0 0 .884 1.137 3.184 3.184 0 0 0 1.125.57c.94.29 1.9.525 2.928.8a4.55 4.55 0 0 1-.41.28 8.51 8.51 0 0 0-1.064.563 1.05 1.05 0 0 0-.155 1.723 4.382 4.382 0 0 0 2.965 1.57c.09.01.18.01.268.018.87.08.87.08.68.95a1.662 1.662 0 0 0 1.48 1.896c.246.012.49.012.826.02a3.2 3.2 0 0 1-.2.474 1.642 1.642 0 0 0 1.087 2.53c.5.085 1 .124 1.51.185a11.49 11.49 0 0 0-.32 1.28 2.472 2.472 0 0 0 .06.99.64.64 0 0 0 .47.37c.386.013.454.18.41.5-.063.44-.34.942.34 1.18a.42.42 0 0 1 .067.284c0 .12-.055.24-.054.36.01.855.23 1.026 1.058.84a3.033 3.033 0 0 1 .39-.03c.044.268.08.508.125.747.073.4.254.578.66.335.12-.072.26-.11.38-.182.382-.226.58-.13.652.316a1.75 1.75 0 0 0 .254.487c.13-.1.26-.2.39-.29.07-.05.136-.093.26-.18.01.178.014.29.03.4.05.46.08.93.17 1.385.07.37.28.43.62.23.58-.346.59-.33.705.316a1.915 1.915 0 0 0 .06.2c.24.81.275.83 1.07.6.13.375.264.75.39 1.127a.332.332 0 0 0 .52.25c.36-.2.454 0 .553.3a3.89 3.89 0 0 0 .323.606c.18-.163.36-.33.54-.5.073-.07.14-.14.276-.282.1.194.17.334.236.48.148.33.128.812.71.733a.382.382 0 0 1 .175.22c.124.346.232.69.35 1.04s.3.35.532.1a2.372 2.372 0 0 1 .3-.23c.14.38.26.72.4 1.05.123.28.29.46.58.13.2-.23.31-.1.39.136.13.365.29.717.446 1.1l.55-.133c.1.23.186.458.3.67s.25.38.44.66l.45-.325c.193.638.215 1.28.9 1.368a1.524 1.524 0 0 0 .505-.52 2.02 2.02 0 0 1 .19.32.9.9 0 0 0 .86.84.26.26 0 0 1 .16.164.7.7 0 0 1-.21.325c-.4.275-.814.53-1.26.812l.47.39a1.916 1.916 0 0 1-.323.346c-1.946 1.2-3.9 2.39-5.846 3.6-1.495.93-2.97 1.9-4.45 2.844-.06.037-.11.086-.17.13a20.5 20.5 0 0 0-1.84 1.46 17.174 17.174 0 0 0-1.52 1.563 8.15 8.15 0 0 0-1.14 1.727 9.26 9.26 0 0 0-.5 1.79.648.648 0 0 0 .31.463.73.73 0 0 1 .13 1.22 2.92 2.92 0 0 0-.8 2.03c-.054.58-.163 1.21.555 1.46a2.85 2.85 0 0 0 .685.3 1.01 1.01 0 0 0 .62-.13 6.54 6.54 0 0 0 .753-.59l.1.13c-.26.566-.494 1.145-.785 1.694a5.76 5.76 0 0 0-.363 3.566.766.766 0 0 0 .448.42c.617.265.717.42.35.864a.153.153 0 0 0-.05.09c.21.51-.13 1.1.25 1.6a2.555 2.555 0 0 1 .232.742 1.076 1.076 0 0 0 1.05-.144 2.428 2.428 0 0 1 1.02-.44c.39-.066.255.27.22.477-.14.822-.294 1.643-.42 2.47a2.19 2.19 0 0 0 .055.63.546.546 0 0 0 .81.52.5.5 0 0 1 .4.222 3.423 3.423 0 0 1 .143.557.612.612 0 0 0 .78.49 8.207 8.207 0 0 0 3.16-1.95c.135-.113.28-.21.42-.32l.148.09a2.247 2.247 0 0 1-.243.91 2.418 2.418 0 0 0-.33 2.05c.33.12.56.21.8.27a.4.4 0 0 0 .284-.07c.62-.44 1.416-.684 1.68-1.524a.465.465 0 0 1 .255-.25c1.48-.55 2.34-1.8 3.31-2.93a3.323 3.323 0 0 1 .33-.3 1.718 1.718 0 0 1 .14.45 2.322 2.322 0 0 0 .584 1.74.755.755 0 0 0 .59.23c.667-.4 1.3-.86 1.932-1.32a4.36 4.36 0 0 0 .53-.562.6.6 0 0 0 .16-.136c.29-1.027 1.205-1.55 1.823-2.318a8.148 8.148 0 0 0 .867-1.26c.324-.61.532-.71 1.003-.223.3.31.48.265.724 0a9.855 9.855 0 0 0 2.38-3.318c.27-.78.474-1.59.69-2.39a27.193 27.193 0 0 0 .75-2.95c.275-1.807.46-3.628.644-5.446.087-.82.067-1.653.13-2.48a.883.883 0 0 1 .33-.443 1.247 1.247 0 0 1 .34-.13c.61-.267.665-.247.69.395.02.392.186.46.51.33l.68-.28c.08.452.15.845.21 1.24a.37.37 0 0 0 .564.333 5.61 5.61 0 0 0 .74-.285c.36-.19.58-.14.6.3.01.16 0 .32.01.56l1.275-.487a10.85 10.85 0 0 0 .13 1.08c.114.51.283.57.75.34.215-.11.434-.21.623-.3l.35 1.82 1.557-.7c.27.247.02.874.59.817a4.147 4.147 0 0 0 .965-.344c.25.665-.25 1.374.26 2a5.862 5.862 0 0 0 .766-.373c.35-.23.537-.17.65.24.222.78.293.81 1.066.59a.43.43 0 0 1 .38.09c.48.77.47.77 1.21.29a.656.656 0 0 1 .18-.02c.026.154.04.316.076.473a5.966 5.966 0 0 0 .206.82c.258.678.433.738 1.22.436a2.96 2.96 0 0 1 .126.374 1.225 1.225 0 0 0 .71 1.09 1.21 1.21 0 0 0 1.284-.54 1.155 1.155 0 0 1 .25-.327.452.452 0 0 1 .4.125 1.76 1.76 0 0 1 .01.626.976.976 0 0 0 .47 1.085.75.75 0 0 0 .93-.416.65.65 0 0 1 .17-.1c.055.11.1.21.16.31a11.656 11.656 0 0 0 .85 1.44.907.907 0 0 0 1.638-.075 2.766 2.766 0 0 1 .284-.284c.29.455.33 1.2 1.114.955.94-.3.986-1.03.79-1.862l.15-.04c.15.25.3.5.46.75a9.254 9.254 0 0 0 1.03 1.452 1.623 1.623 0 0 0 1.04.347c.355.01.49.074.486.422A5.123 5.123 0 0 0 78 77.82c.553.672 1.013.592 1.362-.22a4.765 4.765 0 0 0 .254-.75c.056-.23.068-.474.12-.867.192.214.284.32.378.42.494.547.954 1.13 1.494 1.626a.74.74 0 0 0 1.232-.37 9.19 9.19 0 0 0 .236-1.24l.126-.68c.557.82 1.04 1.53 1.52 2.24a3.926 3.926 0 0 0 1.79 1.6 1.838 1.838 0 0 0 .66.152c.4 0 .8-.075.725-.65a.77.77 0 0 1 .147-.276 11.524 11.524 0 0 0 .814 1.21 18.417 18.417 0 0 0 1.553 1.58 1.335 1.335 0 0 0 .77.287.65.65 0 0 0 .76-.634 5.64 5.64 0 0 0-.55-2.88c-.67-1.63-1.41-3.236-2.11-4.856-.15-.344-.25-.712-.372-1.07l.2-.083a4.823 4.823 0 0 1 .266.41c.91 1.758 1.8 3.52 2.73 5.26a3.6 3.6 0 0 0 1.74 1.7c.77.33 1.366.017 1.218-.79a14.84 14.84 0 0 0-.9-3.03c-.63-1.51-1.39-2.97-2.09-4.45-.07-.146-.116-.3-.174-.45l.145-.08a4.148 4.148 0 0 1 .38.51c.61 1.13 1.19 2.28 1.818 3.4a5.512 5.512 0 0 0 .857 1.13 1.57 1.57 0 0 0 .775.425c1.05.212 1.5-.06 1.2-1.07-.38-1.28-.9-2.52-1.39-3.766-.19-.473-.47-.91-.7-1.366a3.285 3.285 0 0 1-.13-.344l.11-.07a1.376 1.376 0 0 1 .31.315.775.775 0 0 0 .964.53 1 1 0 0 0 .73-1 4.983 4.983 0 0 0-.3-1.65 21.938 21.938 0 0 0-2.69-4.78c-.24-.35-.508-.68-.715-1.045a.563.563 0 0 1 0-.513c.756-.8.456-1.655.14-2.48a7.306 7.306 0 0 0-2.66-3.083c-1.19-.9-2.43-1.74-3.635-2.623a38.138 38.138 0 0 1-2.173-1.682c-.362-.31-.622-.74-.96-1.08a5.087 5.087 0 0 0-.88-.75q-1.99-1.265-4.007-2.486c-1.127-.68-2.25-1.37-3.4-1.98-.938-.492-1.96-.82-2.886-1.325a139.63 139.63 0 0 1-5.875-3.365c-1.55-.95-3.04-1.996-4.53-3.034a7.755 7.755 0 0 1-1.28-1.177.64.64 0 0 1-.016-.62A7.18 7.18 0 0 0 62.27 33a3.484 3.484 0 0 1 .38-.79.77.77 0 0 1 .36-.14 1.72 1.72 0 0 1 .03.38 4.976 4.976 0 0 1-.13.54l.164.1a1.575 1.575 0 0 0 .35-.457c.15-.543.25-1.1.37-1.65a10.926 10.926 0 0 1 .36-1.55 1.78 1.78 0 0 1 .634-.42c.336-.242.66-.414 1.018.087a1.32 1.32 0 0 0-.58-1.345 1.666 1.666 0 0 0-1.674-.346 12.92 12.92 0 0 1-1.425.565 4.21 4.21 0 0 1-1.114.03 1.783 1.783 0 0 0-.3-.086 16.51 16.51 0 0 0-2.95.78 7.94 7.94 0 0 1-2.45.746 10.572 10.572 0 0 1-2.4-.17c-.9-.12-1.8-.35-2.7-.455a8.27 8.27 0 0 1-3.366-1.46 36.92 36.92 0 0 1-6.4-5.19c-1.43-1.4-2.677-2.977-4.052-4.43a34.16 34.16 0 0 0-2.73-2.6 44.037 44.037 0 0 0-3.233-2.47c-1.024-.717-2.118-1.328-3.16-2.018-1.4-.927-2.736-1.95-4.17-2.815-2.4-1.453-4.823-2.89-7.314-4.185C13.77 2.6 11.65 1.74 9.55.86a19.457 19.457 0 0 0-2.93-.88 3.226 3.226 0 0 0-1.08.143 2.928 2.928 0 0 0 .61.84c.96.62 1.96 1.183 2.96 1.738.61.347 1.27.61 1.9.95 1.37.76 2.73 1.55 4.1 2.34a4.423 4.423 0 0 1 .43.32z"/></svg>