<svg id="Layer_1" data-name="Layer 1" xmlns="http://www.w3.org/2000/svg" viewBox="0 0 21.843 100.194"><defs><style>.cls-1{fill:#fff}.cls-2{fill:none;stroke:#fff;stroke-miterlimit:10;stroke-width:2.835px}</style></defs><title>Biology</title><path class="cls-1" d="M4.465 100.104l.326-4.2.43-4.8.6-6.2.75-7.315c.12-1.3.28-2.63.43-3.99.13-1.36.31-2.75.47-4.16.39-2.82.72-5.73 1.16-8.69.38-2.96.72-5.98 1.02-9 .24-3.02.58-6.05.73-9.03.17-2.98.4-5.918.46-8.76.09-2.844.21-5.596.19-8.2s.1-5.08-.01-7.357l-.19-6.22c-.08-1.85-.24-3.455-.31-4.785l-.29-4.175.4-.05.6 4.154c.19 1.323.45 2.93.65 4.78l.59 6.23c.25 2.283.306 4.766.48 7.39.2 2.63.18 5.4.247 8.27.09 2.87 0 5.832-.017 8.847 0 3.02-.19 6.07-.277 9.136-.126 3.06-.325 6.114-.475 9.13-.215 3.005-.385 5.973-.74 8.823s-.727 5.6-1.216 8.19c-.23 1.3-.445 2.552-.69 3.77l-.74 3.51c-.487 2.242-1 4.29-1.47 6.1-.487 1.802-.925 3.372-1.332 4.66-.79 2.572-1.36 4.01-1.36 4.01z"/><path class="cls-2" d="M2.242 16.463c1.9-5.943 5.09-11.954 8.074-14.79 9.915 4.288 11.9 40.815 8.7 52.54-3.39 12.41-8.744 21.7-10.215 24.916m-.09.04a590.242 590.242 0 0 1-4.85-13.34c-.89-2.56-2.85-29.51-2.36-43.14"/><path class="cls-1" d="M11.15 22.795l-.37-.376a5.216 5.216 0 0 0-.434-.42l-.59-.5a16.945 16.945 0 0 0-1.606-1.06 21.158 21.158 0 0 0-1.967-.99 29.93 29.93 0 0 0-3.865-1.36 30.494 30.494 0 0 0-1.3-.33l-.474-.1.734-2.43.525.23c.322.15.77.363 1.3.633a31.636 31.636 0 0 1 3.708 2.25 22.184 22.184 0 0 1 1.81 1.44 17.52 17.52 0 0 1 1.41 1.425l.5.63a5.3 5.3 0 0 1 .34.5zm.025.045L.157 23.963l.046-2.533 10.972 1.41zM5.64 86.534l.545-.647 1.487-1.71c1.23-1.388 2.865-3.2 4.405-5.087a65.54 65.54 0 0 0 3.97-5.414c1-1.543 1.615-2.612 1.615-2.612s-.44 1.148-1.2 2.84a66.526 66.526 0 0 1-3.137 6.05c-1.256 2.147-2.618 4.226-3.61 5.77l-1.168 1.86-.44.722z"/><path class="cls-1" d="M6.22 84.507l-.86-2.02a128.37 128.37 0 0 1-1.767-4.5 443.55 443.55 0 0 1-2.383-6.565s1.848 2.963 3.74 5.88a125.24 125.24 0 0 0 2.66 3.946l1.257 1.763zm-.956 5.156L2.116 79.65l5.897 8.716-2.75 1.297z"/></svg>