<svg id="Layer_1" data-name="Layer 1" xmlns="http://www.w3.org/2000/svg" viewBox="0 0 84.878 71.583"><defs><style>.cls-1{fill:none}.cls-1,.cls-3{stroke:#fff;stroke-miterlimit:10;stroke-width:3.402px}.cls-2,.cls-3{fill:#fff}</style></defs><title>Donate_Support</title><path class="cls-1" d="M62.79 24.46l-6.09 1.65a6 6 0 0 1-5.784-1.523l-7.733-7.638L21.35 38.74l-5.41-1.306V12.957L41.67 2.02a4 4 0 0 1 4.427.887L63.71 21.14a2 2 0 0 1-.92 3.32z"/><rect class="cls-1" x="1266.762" y="72.39" width="8.523" height="33.687" rx="2" ry="2" transform="rotate(-180 638.492 57.13)"/><rect class="cls-2" x="1292.607" y="106.092" width="11.375" height="7.125" rx="1" ry="1" transform="rotate(-45 588.258 1604.615)"/><path class="cls-1" d="M48.815 68.71L82.05 35.476a3.9 3.9 0 0 0-.09-5.568l-1.635-1.635-38.8 38.8 1.635 1.635a4 4 0 0 0 5.655.002z"/><path class="cls-3" d="M36 61.55l38.8-38.802 5.526 5.525-38.803 38.802z"/><path class="cls-1" d="M47 20.85l3.78 3.737a6 6 0 0 0 5.786 1.522l6.09-1.65a2 2 0 0 0 .916-3.32l-8.285-8.58 1.836-1.835a4 4 0 0 1 5.657 0l12.02 12.02-38.8 38.8-12.02-12.02a3.9 3.9 0 0 1-.09-5.568z"/></svg>