<svg id="Layer_1" data-name="Layer 1" xmlns="http://www.w3.org/2000/svg" viewBox="0 0 60 28.965"><defs><style>.cls-1{fill:#fff}</style></defs><title>News_Article</title><path class="cls-1" d="M24.965 4v20.965H4V4h20.965m.9-4H3.1A3.1 3.1 0 0 0 0 3.1v22.76a3.1 3.1 0 0 0 3.1 3.1h22.758a3.1 3.1 0 0 0 3.1-3.1V3.103a3.1 3.1 0 0 0-3.1-3.1z"/><rect class="cls-1" x="34.138" width="25.862" height="4.138" rx="2.053" ry="2.053"/><rect class="cls-1" x="34.138" y="8.276" width="25.862" height="4.138" rx="2.053" ry="2.053"/><rect class="cls-1" x="34.138" y="16.552" width="25.862" height="4.138" rx="2.053" ry="2.053"/><rect class="cls-1" x="34.138" y="24.827" width="16.552" height="4.138" rx="2.069" ry="2.069"/></svg>