<svg id="Layer_1" data-name="Layer 1" xmlns="http://www.w3.org/2000/svg" viewBox="0 0 90.657 78.041"><defs><style>.cls-1{fill:#fff}.cls-2{fill:none;stroke:#fff;stroke-linecap:round;stroke-linejoin:round;stroke-width:4.044px}</style></defs><title>Observe</title><path class="cls-1" d="M80.39 7.068l4.45 9.517-47.445 22.06-4.45-9.517L80.39 7.068M82.344 1.7l-54.78 25.47 7.877 16.844 54.78-25.47L82.35 1.7z"/><path class="cls-1" d="M28.71 32.92l3.045 6.514-14.138 6.572-3.046-6.515 14.14-6.57m1.96-5.37L9.19 37.54l6.472 13.842 21.473-9.98-6.472-13.844z"/><path class="cls-1" d="M10.297 43.92l1.174 2.51-4.56 2.126-1.174-2.512L10.3 43.92m1.954-5.37L.35 44.084l4.6 9.84 11.9-5.537-4.6-9.84z"/><path class="cls-2" d="M88.635 19.927L80.262 2.022M6.944 53.416L2.022 42.888m33.928-2.23l16.542 35.36m-16.616-35.36l-16.542 35.36"/></svg>