<svg id="Layer_1" data-name="Layer 1" xmlns="http://www.w3.org/2000/svg" viewBox="0 0 77.484 71.029"><defs><style>.cls-1{fill:none;stroke:#fff;stroke-linecap:round;stroke-linejoin:round;stroke-width:4.16px}.cls-2{fill:#fff}</style></defs><title>Our_Work</title><path class="cls-1" d="M55.95 28.105c4.528 16.507-3.58 28.976-13.96 31.85S18.29 56.3 13.762 39.793s2.09-34.41 12.47-37.286 25.19 9.09 29.718 25.598z"/><path class="cls-2" d="M70.893 62.948s-1.094.122-3 .252-4.638.286-7.905.357c-1.634.042-3.4.088-5.273.077s-3.842.02-5.88-.02a362.485 362.485 0 0 1-12.757-.44c-2.17-.128-4.338-.247-6.47-.408-2.135-.144-4.233-.325-6.262-.507s-3.99-.4-5.848-.6-3.615-.42-5.235-.64c-3.24-.42-5.936-.87-7.822-1.2s-2.96-.57-2.96-.57 1.1-.13 3-.26 4.64-.29 7.91-.36c1.64-.05 3.4-.09 5.28-.08s3.84-.02 5.88.02 4.15.08 6.28.16c2.14.06 4.31.18 6.48.28a353.2 353.2 0 0 1 12.73.92c2.03.17 3.99.4 5.85.6s3.62.42 5.24.64c3.24.42 5.94.86 7.824 1.2s2.96.56 2.96.56z"/><path class="cls-2" d="M60.323 69.73s-.878-.105-2.388-.37-3.658-.67-6.2-1.266c-5.1-1.134-11.77-3.03-18.34-5.234s-13.024-4.733-17.77-6.917c-2.385-1.06-4.34-2.038-5.7-2.743S7.8 52.048 7.8 52.048s.877.1 2.387.368 3.66.666 6.2 1.263c5.1 1.13 11.77 3.03 18.337 5.23s13.023 4.74 17.77 6.92c2.385 1.06 4.34 2.03 5.7 2.74s2.128 1.15 2.128 1.15z"/><path class="cls-2" d="M0 67.91s1.182-.377 3.263-.953 5.06-1.37 8.652-2.207c1.8-.425 3.74-.886 5.806-1.315s4.24-.924 6.5-1.362c4.52-.9 9.35-1.77 14.19-2.57 2.43-.386 4.85-.78 7.24-1.124 2.39-.37 4.75-.68 7.03-.98s4.5-.55 6.6-.79 4.09-.44 5.92-.61c3.67-.36 6.75-.56 8.9-.67s3.4-.14 3.4-.14-1.18.37-3.26.95-5.06 1.37-8.65 2.21c-1.79.43-3.74.88-5.81 1.31s-4.24.92-6.5 1.36-4.59.9-6.97 1.317c-2.37.44-4.8.84-7.21 1.25-4.843.786-9.7 1.5-14.263 2.1-2.28.305-4.5.542-6.595.783s-4.083.44-5.92.61c-3.67.356-6.746.556-8.9.674S0 67.91 0 67.91z"/><path class="cls-2" d="M16.12 71.03s.75-.5 2.09-1.308 3.267-1.926 5.624-3.163c4.69-2.54 11.1-5.54 17.625-8.25s13.19-5.09 18.3-6.6c2.54-.79 4.7-1.35 6.21-1.73s2.4-.55 2.4-.55-.75.502-2.09 1.31-3.27 1.93-5.63 3.163c-4.69 2.54-11.1 5.54-17.63 8.24s-13.197 5.08-18.307 6.6c-2.544.783-4.7 1.35-6.218 1.724s-2.398.542-2.398.542zm35.716-47.81l-11.464-6.444 2.182-.873-3.805 9.907-.66 1.707-1.31-1.154-7.57-6.656 1.37-.358-3.93 9.11-.33.75-.58-.53-6.2-5.66.48-.11-3.27 6.76 2.71-7.01.145-.38.335.27 6.545 5.26-.9.22 3.354-9.347.394-1.1.974.743 8.034 6.083-1.967.553 3.21-10.11.52-1.64 1.66.77 11.94 5.517-1.9 3.703z"/></svg>