<svg id="Layer_1" data-name="Layer 1" xmlns="http://www.w3.org/2000/svg" viewBox="0 0 60 39.202"><defs><style>.cls-1{fill:#fff}</style></defs><title>Picture_Blog</title><path class="cls-1" d="M54.462 6.28A1.54 1.54 0 0 1 56 7.816v25.846a1.54 1.54 0 0 1-1.538 1.538H5.54A1.54 1.54 0 0 1 4 33.664V7.817A1.54 1.54 0 0 1 5.54 6.28h48.92m0-4H5.54A5.538 5.538 0 0 0 0 7.816v25.846A5.538 5.538 0 0 0 5.54 39.2h48.92A5.538 5.538 0 0 0 60 33.664V7.817a5.538 5.538 0 0 0-5.538-5.538z"/><path class="cls-1" d="M41.193 13.678a7.077 7.077 0 1 1-7.077 7.077 7.085 7.085 0 0 1 7.077-7.077m0-4A11.077 11.077 0 1 0 52.27 20.755 11.077 11.077 0 0 0 41.193 9.678z"/><rect class="cls-1" x="7.569" y="9.678" width="13.846" height="3.692" rx="1.846" ry="1.846"/><rect class="cls-1" x="7.569" width="10.615" height="5.077" rx="2.538" ry="2.538"/><circle class="cls-1" cx="25.846" cy="11.524" r="1.846"/></svg>